<svg width="47" height="47" viewBox="0 0 47 47" fill="none" xmlns="http://www.w3.org/2000/svg">
<path d="M43.0833 33.2916H3.91665C3.39726 33.2916 2.89915 33.498 2.5319 33.8652C2.16464 34.2325 1.95831 34.7306 1.95831 35.25C1.95831 35.7694 2.16464 36.2675 2.5319 36.6347C2.89915 37.002 3.39726 37.2083 3.91665 37.2083H43.0833C43.6027 37.2083 44.1008 37.002 44.4681 36.6347C44.8353 36.2675 45.0416 35.7694 45.0416 35.25C45.0416 34.7306 44.8353 34.2325 44.4681 33.8652C44.1008 33.498 43.6027 33.2916 43.0833 33.2916ZM43.0833 41.125H3.91665C3.39726 41.125 2.89915 41.3313 2.5319 41.6986C2.16464 42.0658 1.95831 42.5639 1.95831 43.0833C1.95831 43.6027 2.16464 44.1008 2.5319 44.4681C2.89915 44.8353 3.39726 45.0416 3.91665 45.0416H43.0833C43.6027 45.0416 44.1008 44.8353 44.4681 44.4681C44.8353 44.1008 45.0416 43.6027 45.0416 43.0833C45.0416 42.5639 44.8353 42.0658 44.4681 41.6986C44.1008 41.3313 43.6027 41.125 43.0833 41.125ZM11.75 13.7083C11.3627 13.7083 10.984 13.8232 10.662 14.0384C10.3399 14.2535 10.0889 14.5594 9.94071 14.9172C9.79249 15.2751 9.75371 15.6688 9.82927 16.0487C9.90484 16.4286 10.0914 16.7775 10.3652 17.0514C10.6391 17.3253 10.988 17.5118 11.3679 17.5874C11.7478 17.6629 12.1416 17.6241 12.4994 17.4759C12.8572 17.3277 13.1631 17.0767 13.3783 16.7546C13.5935 16.4326 13.7083 16.054 13.7083 15.6666C13.7083 15.1473 13.502 14.6492 13.1347 14.2819C12.7675 13.9146 12.2694 13.7083 11.75 13.7083ZM39.1666 1.95831H7.83331C6.27517 1.95831 4.78084 2.57728 3.67906 3.67906C2.57728 4.78084 1.95831 6.27517 1.95831 7.83331V23.5C1.95831 25.0581 2.57728 26.5525 3.67906 27.6542C4.78084 28.756 6.27517 29.375 7.83331 29.375H39.1666C40.7248 29.375 42.2191 28.756 43.3209 27.6542C44.4227 26.5525 45.0416 25.0581 45.0416 23.5V7.83331C45.0416 6.27517 44.4227 4.78084 43.3209 3.67906C42.2191 2.57728 40.7248 1.95831 39.1666 1.95831ZM41.125 23.5C41.125 24.0194 40.9187 24.5175 40.5514 24.8847C40.1841 25.252 39.686 25.4583 39.1666 25.4583H7.83331C7.31393 25.4583 6.81582 25.252 6.44856 24.8847C6.0813 24.5175 5.87498 24.0194 5.87498 23.5V7.83331C5.87498 7.31393 6.0813 6.81582 6.44856 6.44856C6.81582 6.0813 7.31393 5.87498 7.83331 5.87498H39.1666C39.686 5.87498 40.1841 6.0813 40.5514 6.44856C40.9187 6.81582 41.125 7.31393 41.125 7.83331V23.5ZM23.5 9.79165C22.338 9.79165 21.2021 10.1362 20.236 10.7818C19.2699 11.4273 18.5169 12.3449 18.0722 13.4184C17.6275 14.4919 17.5112 15.6732 17.7379 16.8128C17.9646 17.9524 18.5241 18.9993 19.3457 19.8209C20.1674 20.6425 21.2142 21.2021 22.3538 21.4288C23.4935 21.6554 24.6747 21.5391 25.7482 21.0944C26.8218 20.6498 27.7393 19.8968 28.3849 18.9306C29.0304 17.9645 29.375 16.8286 29.375 15.6666C29.375 14.1085 28.756 12.6142 27.6542 11.5124C26.5525 10.4106 25.0581 9.79165 23.5 9.79165ZM23.5 17.625C23.1127 17.625 22.734 17.5101 22.412 17.2949C22.0899 17.0798 21.8389 16.7739 21.6907 16.4161C21.5425 16.0582 21.5037 15.6645 21.5793 15.2846C21.6548 14.9047 21.8414 14.5558 22.1152 14.2819C22.3891 14.008 22.738 13.8215 23.1179 13.7459C23.4978 13.6704 23.8916 13.7092 24.2494 13.8574C24.6072 14.0056 24.9131 14.2566 25.1283 14.5787C25.3435 14.9007 25.4583 15.2793 25.4583 15.6666C25.4583 16.186 25.252 16.6841 24.8847 17.0514C24.5175 17.4187 24.0194 17.625 23.5 17.625ZM35.25 13.7083C34.8627 13.7083 34.484 13.8232 34.162 14.0384C33.8399 14.2535 33.5889 14.5594 33.4407 14.9172C33.2925 15.2751 33.2537 15.6688 33.3293 16.0487C33.4048 16.4286 33.5913 16.7775 33.8652 17.0514C34.1391 17.3253 34.488 17.5118 34.8679 17.5874C35.2478 17.6629 35.6416 17.6241 35.9994 17.4759C36.3572 17.3277 36.6631 17.0767 36.8783 16.7546C37.0935 16.4326 37.2083 16.054 37.2083 15.6666C37.2083 15.1473 37.002 14.6492 36.6347 14.2819C36.2675 13.9146 35.7694 13.7083 35.25 13.7083Z" fill="#EDE6F2"/>
</svg>
