<svg width="46" height="45" viewBox="0 0 46 45" fill="none" xmlns="http://www.w3.org/2000/svg">
<g clip-path="url(#clip0_15_573)">
<mask id="mask0_15_573" style="mask-type:luminance" maskUnits="userSpaceOnUse" x="0" y="0" width="46" height="44">
<path d="M45.8053 0.468018H0.594604V43.5736H45.8053V0.468018Z" fill="white"/>
</mask>
<g mask="url(#mask0_15_573)">
<path d="M21.3253 22.8831C20.7739 22.8831 20.3329 22.9908 20.0021 23.2063C19.6712 23.4219 19.561 23.7452 19.561 24.1762C19.561 24.4995 19.6712 24.8228 20.0021 25.1461C20.3329 25.4694 20.7739 25.5772 21.3253 25.5772C21.8766 25.5772 22.3177 25.4694 22.6485 25.1461C22.9793 24.8228 23.0896 24.6073 23.0896 24.1762C23.0896 23.7452 22.9793 23.4219 22.6485 23.2063C22.2075 22.9908 21.7664 22.8831 21.3253 22.8831Z" fill="black"/>
<path d="M21.3253 20.6198C21.7664 20.6198 22.0972 20.512 22.428 20.2965C22.6485 20.081 22.8691 19.7577 22.8691 19.3266C22.8691 19.0033 22.7588 18.68 22.428 18.4645C22.2074 18.249 21.7664 18.0334 21.3253 18.0334C20.8842 18.0334 20.4431 18.1412 20.2226 18.4645C20.002 18.68 19.7815 19.0033 19.7815 19.3266C19.7815 19.7577 19.8918 19.9732 20.2226 20.2965C20.4431 20.512 20.7739 20.6198 21.3253 20.6198Z" fill="black"/>
<path d="M22.6485 0.468018C10.5189 0.468018 0.594604 10.1668 0.594604 22.0208C0.594604 33.8749 10.5189 43.5736 22.6485 43.5736C34.7782 43.5736 44.7025 33.9826 44.7025 22.0208C44.7025 10.059 34.8885 0.468018 22.6485 0.468018ZM14.4886 27.8401H11.1805V18.7879L9.0854 19.219L8.42378 16.6326L12.0627 15.6627H14.5989V27.8401H14.4886ZM26.3977 24.4994C26.3977 25.0382 26.2874 25.577 26.0669 26.0081C25.8464 26.4391 25.5156 26.8702 24.9642 27.0857C24.4128 27.3013 23.9718 27.6246 23.3102 27.8401C22.6485 28.0556 21.9869 28.0556 21.215 28.0556C20.4431 28.0556 19.7815 27.9478 19.1199 27.8401C18.4583 27.7323 17.9069 27.409 17.4659 27.0857C17.0248 26.7624 16.694 26.4391 16.3632 26.0081C16.0324 25.577 16.0324 25.146 16.0324 24.6072C16.0324 23.8528 16.253 23.314 16.5838 22.7752C16.9146 22.3441 17.4659 21.9131 18.1275 21.6975C17.6865 21.482 17.2454 21.051 16.9146 20.7277C16.5838 20.2966 16.4735 19.7578 16.4735 19.1112C16.4735 18.6801 16.5838 18.1413 16.8043 17.818C17.0248 17.387 17.3557 17.0637 17.7966 16.7404C18.2377 16.4171 18.6788 16.2015 19.2302 15.986C19.7815 15.7705 20.4431 15.7705 21.1047 15.7705C21.7664 15.7705 22.428 15.8783 22.9793 15.986C23.5307 16.2015 24.082 16.4171 24.4128 16.7404C24.7437 17.0637 25.1847 17.387 25.4053 17.818C25.6258 18.2491 25.7361 18.6801 25.7361 19.1112C25.7361 19.7578 25.6258 20.2966 25.295 20.7277C24.9642 21.1587 24.5231 21.482 24.082 21.6975C24.4128 21.8053 24.6334 22.0208 24.9642 22.1286C25.1847 22.3441 25.4053 22.5596 25.6258 22.7752C25.8464 22.9907 25.9566 23.314 26.0669 23.5295C26.2874 23.7451 26.3977 24.0683 26.3977 24.4994ZM36.9836 23.2062H34.0063V26.2236H30.9188V23.2062H27.9415V20.2966H30.9188V17.2792H34.0063V20.2966H36.9836V23.2062Z" fill="black"/>
</g>
</g>
<defs>
<clipPath id="clip0_15_573">
<rect width="45.8723" height="44.8298" fill="white" transform="translate(0.127686)"/>
</clipPath>
</defs>
</svg>
