<svg width="275" height="29" viewBox="0 0 275 29" fill="none" xmlns="http://www.w3.org/2000/svg">
<g clip-path="url(#clip0_15_514)">
<path d="M12.217 1.40649C13.4479 1.40649 14.4549 1.40649 15.2941 1.46249C16.1334 1.5185 16.8607 1.5745 17.4201 1.6865C17.9796 1.7985 18.4832 1.9105 18.8748 2.0785C19.2664 2.2465 19.658 2.47051 19.9937 2.69451C20.721 3.25451 21.2804 3.98251 21.6722 4.82253C22.0638 5.66255 22.2876 6.55855 22.2876 7.51056C22.2876 8.51857 22.0638 9.47057 21.6722 10.2546C21.2804 11.0386 20.6651 11.6546 19.8819 12.0466C19.6021 12.2146 19.3224 12.3826 18.9867 12.4946C18.651 12.6066 18.2033 12.7746 17.6439 12.9426C18.4832 13.1106 19.0985 13.2226 19.5462 13.3906C19.9378 13.5026 20.3853 13.7266 20.7771 13.9506C21.5603 14.4546 22.2317 15.1826 22.6792 16.1907C23.1268 17.1427 23.4065 18.2066 23.4065 19.2707C23.4065 19.9987 23.2947 20.6707 23.0708 21.2866C22.847 21.9587 22.5674 22.5187 22.1756 23.0787C21.784 23.6387 21.3365 24.1427 20.833 24.5347C20.3294 24.9828 19.714 25.3188 19.0985 25.5428C18.7628 25.7108 18.3153 25.8227 17.8677 25.9347C17.4201 26.0468 16.8607 26.1028 16.2453 26.1587C15.6298 26.2148 14.8466 26.2708 14.0074 26.2708C13.1681 26.2708 12.1611 26.3267 10.9862 26.3267H0.635918V22.1267H1.97866C2.37028 22.1267 2.53814 21.7907 2.53814 21.0627V6.61455C2.53814 6.05454 2.31434 5.77455 1.81082 5.77455H0.468079V1.40649H12.217ZM8.18882 11.3186H12.3289C13.7276 11.3186 14.7906 11.0386 15.5739 10.5346C16.3571 9.97458 16.7488 9.24658 16.7488 8.29456C16.7488 6.55855 15.5179 5.66255 13.0003 5.66255H8.24476V11.3186H8.18882ZM8.18882 21.9587H13.4479C14.6787 21.9587 15.6858 21.6227 16.4131 21.0067C17.1404 20.3906 17.4761 19.4946 17.4761 18.4308C17.4761 17.3667 17.1404 16.5827 16.4131 16.0227C15.6858 15.4627 14.7347 15.1826 13.4479 15.1826H8.18882V21.9587Z" fill="black"/>
<path d="M31.0717 18.6553C31.4074 20.0553 31.911 21.1194 32.5263 21.7912C33.1978 22.4633 34.0929 22.7993 35.2118 22.7993C35.9952 22.7993 36.6665 22.6313 37.17 22.2393C37.6736 21.9033 38.0652 21.2874 38.4009 20.4473H44.1635C43.8278 21.5113 43.4921 22.4074 43.1005 23.0233C42.7089 23.6953 42.1494 24.2553 41.478 24.8153C39.7435 26.2154 37.6736 26.8874 35.2679 26.8874C33.8692 26.8874 32.5824 26.6633 31.4074 26.1594C30.2326 25.6554 29.2255 24.9833 28.3862 24.0873C27.5471 23.1913 26.8757 22.1834 26.3721 21.0073C25.8686 19.8314 25.6448 18.4873 25.6448 17.0873C25.6448 15.6873 25.8686 14.4552 26.3163 13.2232C26.7637 12.0472 27.4352 10.9832 28.2184 10.1432C29.0576 9.30318 30.0087 8.63118 31.1278 8.12717C32.2467 7.62316 33.4776 7.39917 34.7643 7.39917C36.107 7.39917 37.3938 7.67916 38.6246 8.18317C39.8555 8.68718 40.9185 9.4712 41.8137 10.4232C42.7648 11.3752 43.3803 12.3832 43.7719 13.4472C44.1635 14.5112 44.3313 15.8553 44.3313 17.4793C44.3313 17.5353 44.3313 17.6473 44.3313 17.9273C44.3313 18.1512 44.3313 18.3754 44.2754 18.5993H31.0717V18.6553ZM38.4009 15.0153C38.2889 13.8392 37.9532 12.9432 37.3379 12.3272C36.7225 11.7112 35.9391 11.3752 34.8761 11.3752C33.8131 11.3752 32.9181 11.7112 32.3026 12.3272C31.6312 12.9992 31.2956 13.8392 31.2396 15.0153H38.4009Z" fill="black"/>
<path d="M66.9871 1.35108H68.8333V8.79916H66.8193C66.4277 7.79115 66.0919 7.00715 65.8121 6.50314C65.5325 5.99914 65.1968 5.55113 64.8052 5.15912C64.0218 4.43112 63.0707 3.81511 61.8959 3.3671C60.721 2.9191 59.5462 2.6951 58.3153 2.6951C56.9165 2.6951 55.6298 2.97509 54.4548 3.4791C53.28 3.98311 52.3289 4.76713 51.4897 5.71912C50.6504 6.67114 50.035 7.84715 49.5874 9.19117C49.1399 10.5352 48.9161 12.0472 48.9161 13.7272C48.9161 15.7432 49.2517 17.5913 49.8672 19.2713C50.4825 20.9513 51.3777 22.2952 52.4966 23.2474C54.1191 24.5913 56.0773 25.2634 58.3153 25.2634C59.7138 25.2634 61.0008 24.9833 62.2315 24.4233C63.4065 23.8633 64.4136 23.0232 65.1409 21.9594C65.3646 21.6234 65.5884 21.2873 65.7562 20.8954C65.9241 20.5032 66.0919 20.0553 66.2037 19.5512C66.3157 19.0472 66.4835 18.4872 66.5394 17.8713C66.6514 17.2553 66.7073 16.5272 66.8193 15.7432H58.4831V13.9512H68.6655V26.7194H67.2668L66.8752 21.6793C66.3157 22.5753 65.8682 23.2474 65.5325 23.6394C65.1968 24.0313 64.8611 24.4233 64.5254 24.7593C63.7422 25.4873 62.7911 26.0473 61.672 26.4393C60.5531 26.8314 59.3783 26.9993 58.0914 26.9993C56.413 26.9993 54.8464 26.6634 53.4479 26.0473C52.0491 25.4314 50.8741 24.5354 49.8672 23.4154C48.8601 22.2952 48.0769 20.8954 47.5174 19.3273C46.9579 17.7033 46.6781 15.9672 46.6781 14.0072C46.6781 11.9912 46.9579 10.1992 47.5174 8.57515C48.0769 6.95113 48.8601 5.60713 49.8672 4.43112C50.8741 3.31111 52.105 2.41509 53.5596 1.79909C55.0143 1.18308 56.5808 0.903076 58.3712 0.903076C59.3222 0.903076 60.1615 0.959078 60.9447 1.12708C61.7281 1.29508 62.3993 1.51909 63.0707 1.91109C63.7422 2.24709 64.3575 2.7511 64.973 3.3671C65.5884 3.98311 66.2037 4.71113 66.931 5.60713V1.35108H66.9871Z" fill="black"/>
<path d="M89.1472 26.3279H87.1332C86.35 26.3279 85.8464 26.1599 85.5666 25.8238C85.2869 25.4878 85.1191 24.8719 85.0632 23.9198C84.6716 24.3119 84.3359 24.5918 84.1119 24.8158C83.8882 25.0399 83.6645 25.2077 83.4407 25.3758C82.0979 26.3279 80.5315 26.8318 78.6851 26.8318C77.7899 26.8318 76.9508 26.7199 76.2235 26.4398C75.4962 26.2158 74.8248 25.8239 74.3212 25.3758C73.7617 24.9278 73.3701 24.3678 73.0903 23.7517C72.8107 23.1358 72.6428 22.4078 72.6428 21.6239C72.6428 20.4478 72.9785 19.3837 73.6498 18.4318C74.3212 17.4797 75.2723 16.8637 76.4472 16.5277C76.671 16.4717 77.0067 16.3597 77.3983 16.2477C77.7899 16.1357 78.2376 16.0797 78.6292 15.9677C79.0767 15.9117 79.5243 15.7997 79.9718 15.7437C80.4195 15.6877 80.8111 15.6317 81.2027 15.5757C81.7063 15.5197 82.0979 15.4637 82.4336 15.4077C82.7693 15.3517 83.0489 15.2957 83.2729 15.2397C83.4966 15.1837 83.7203 15.1277 83.8882 15.0157C84.0561 14.9037 84.2239 14.8477 84.3918 14.6797C84.8953 14.2877 85.175 13.6717 85.175 12.9437C85.175 11.6557 84.8393 10.7597 84.1119 10.1437C83.3846 9.58365 82.2657 9.30364 80.6991 9.30364C78.4613 9.30364 76.9508 9.86365 76.1115 10.9277C75.8878 11.2077 75.7758 11.5437 75.664 11.8797C75.5521 12.2157 75.4401 12.7757 75.3283 13.4477H73.2582C73.426 12.4957 73.5939 11.7117 73.7618 11.2077C73.9855 10.7037 74.2653 10.1997 74.7128 9.69565C75.9437 8.29563 77.9019 7.56763 80.5874 7.56763C81.93 7.56763 83.105 7.73562 84.1119 8.07163C85.1191 8.40764 85.8464 8.91163 86.2941 9.58365C86.5737 9.97565 86.7416 10.4237 86.9094 10.9277C87.0214 11.4317 87.0773 12.1597 87.0773 12.9997V22.9118C87.0773 23.6398 87.1332 24.1439 87.2451 24.3117C87.3569 24.4797 87.6367 24.5918 88.0842 24.5918H89.0913V26.3279H89.1472ZM85.231 16.2477C84.8953 16.3597 84.6716 16.4717 84.5037 16.5277C84.3359 16.5837 84.168 16.6397 84.0002 16.6957C83.7204 16.8077 83.3846 16.8637 82.993 16.9757C82.6014 17.0317 82.1539 17.1437 81.6504 17.2557L78.4054 17.7597C77.1746 17.9837 76.2235 18.3758 75.5521 18.9917C74.8807 19.6077 74.601 20.4478 74.601 21.5118C74.601 22.6877 74.9926 23.5837 75.7199 24.1998C76.4472 24.8719 77.5103 25.1518 78.797 25.1518C80.1958 25.1518 81.4266 24.8158 82.5455 24.1439C83.6086 23.4718 84.3918 22.5199 84.8393 21.3438C85.0632 20.8397 85.175 20.2797 85.231 19.7198C85.2869 19.1598 85.3428 18.3197 85.3428 17.2557V16.2477H85.231Z" fill="black"/>
<path d="M91.3264 8.46259H95.3545V11.1506C95.6902 10.5346 96.0259 10.0306 96.3616 9.6386C96.6972 9.24659 97.1448 8.9106 97.5364 8.63059C97.9839 8.40659 98.4316 8.1826 98.9352 8.07058C99.4387 7.95859 100.054 7.90259 100.669 7.90259C101.397 7.90259 102.068 7.95859 102.628 8.07058C103.187 8.1826 103.635 8.3506 104.082 8.63059C104.53 8.9106 104.922 9.24659 105.257 9.6946C105.593 10.1426 105.985 10.7026 106.32 11.4306C106.768 10.7026 107.215 10.1426 107.663 9.6946C108.054 9.24659 108.502 8.8546 108.95 8.63059C109.397 8.3506 109.901 8.1826 110.404 8.07058C110.908 7.95859 111.523 7.90259 112.251 7.90259C113.985 7.90259 115.384 8.40659 116.335 9.35861C117.342 10.3666 117.789 11.7106 117.789 13.4466V23.6387C117.789 24.1428 117.845 24.4788 117.957 24.5907C118.069 24.7028 118.293 24.8148 118.741 24.8148H119.859V26.3268H113.649V24.8148H114.824C115.216 24.8148 115.496 24.7028 115.607 24.5347C115.719 24.3667 115.775 23.9188 115.775 23.3027V13.8947C115.775 12.4946 115.44 11.4306 114.768 10.7026C114.097 9.97461 113.09 9.6386 111.747 9.6386C110.181 9.6386 108.894 10.1986 107.943 11.2626C106.991 12.3266 106.544 13.8387 106.544 15.6867V23.6948C106.544 24.1987 106.6 24.5347 106.712 24.6468C106.824 24.7587 107.103 24.8148 107.551 24.8148H108.614V26.3268H102.628V24.8148H103.914C104.362 24.8148 104.586 24.7028 104.586 24.4228V15.2947C104.586 14.2307 104.53 13.3346 104.418 12.5506C104.306 11.8226 104.082 11.2066 103.803 10.8146C103.523 10.3666 103.131 10.0866 102.684 9.91861C102.236 9.7506 101.621 9.6386 100.893 9.6386C99.1589 9.6386 97.8163 10.1426 96.865 11.1506C95.914 12.1586 95.4104 13.5586 95.4104 15.2947V23.5268C95.4104 24.0868 95.4665 24.4788 95.5783 24.5907C95.6902 24.7028 95.9699 24.8148 96.4175 24.8148H97.4805V26.3268H91.3822V24.8148H92.4453C92.8928 24.8148 93.2285 24.7587 93.2844 24.5907C93.3963 24.4228 93.4522 24.0307 93.4522 23.3588V11.4866C93.4522 10.8706 93.3963 10.4786 93.2844 10.3106C93.1726 10.1426 92.8928 10.0306 92.4453 10.0306H91.3822V8.46259H91.3264Z" fill="black"/>
<path d="M121.539 24.7038H122.602C122.994 24.7038 123.274 24.5917 123.441 24.4239C123.609 24.2559 123.665 23.9199 123.665 23.4158V4.0956C123.665 3.64759 123.609 3.31158 123.441 3.19958C123.329 3.08758 123.05 2.97559 122.602 2.97559H121.539V1.35156H125.567V11.4317C126.071 10.7037 126.574 10.1437 127.022 9.69565C127.47 9.24764 127.917 8.85563 128.421 8.57564C128.868 8.29563 129.428 8.12763 129.931 8.01564C130.491 7.90364 131.106 7.84764 131.778 7.84764C132.952 7.84764 134.015 8.07163 134.967 8.51964C135.918 8.96765 136.701 9.63965 137.428 10.4797C138.1 11.3197 138.603 12.3277 138.995 13.5597C139.386 14.7917 139.554 16.0797 139.554 17.5917C139.554 18.9917 139.386 20.2798 139.051 21.4558C138.715 22.6319 138.212 23.5838 137.54 24.4239C136.869 25.2638 136.085 25.8799 135.19 26.3278C134.295 26.7759 133.232 26.9999 132.113 26.9999C130.994 26.9999 129.931 26.7759 128.98 26.3838C128.029 25.9918 127.19 25.3759 126.518 24.5917C126.295 24.3678 126.127 24.1998 126.015 23.9758C125.903 23.7518 125.679 23.4718 125.455 23.0798V26.4399H121.651V24.7038H121.539ZM131.33 9.47166C129.484 9.47166 127.973 10.1997 126.91 11.5997C125.847 12.9997 125.288 14.9037 125.288 17.3677C125.288 19.9438 125.847 21.9039 126.91 23.2478C127.973 24.5917 129.54 25.3199 131.498 25.3199C133.456 25.3199 134.967 24.6479 135.974 23.3599C137.037 22.0719 137.54 20.1678 137.54 17.6477C137.54 14.7357 136.869 12.6077 135.582 11.3197C135.022 10.7597 134.351 10.3117 133.624 10.0317C132.896 9.63965 132.113 9.47166 131.33 9.47166Z" fill="black"/>
<path d="M141.627 1.35156H145.655V23.4158C145.655 23.9199 145.711 24.2559 145.823 24.4239C145.935 24.5917 146.158 24.7038 146.438 24.7038H147.725V26.3278H141.627V24.7038H142.634C143.081 24.7038 143.361 24.5917 143.473 24.4239C143.641 24.2559 143.697 23.9199 143.697 23.4158V3.98358C143.697 3.53559 143.641 3.25558 143.529 3.14358C143.417 3.03158 143.081 2.97559 142.634 2.97559H141.627V1.35156Z" fill="black"/>
<path d="M151.973 17.8147C152.085 18.8226 152.141 19.6068 152.253 20.1106C152.365 20.6147 152.421 21.0066 152.589 21.3427C152.757 21.9027 153.036 22.4626 153.428 22.9107C153.82 23.3587 154.267 23.8068 154.771 24.1428C155.274 24.4788 155.89 24.7587 156.449 24.9267C157.009 25.0947 157.68 25.2068 158.407 25.2068C160.142 25.2068 161.54 24.5907 162.492 23.3027C162.771 22.9667 162.995 22.6307 163.163 22.2946C163.331 21.9588 163.555 21.4547 163.778 20.8386H165.792C165.625 21.3427 165.513 21.7908 165.345 22.1268C165.177 22.5188 165.065 22.8548 164.897 23.1347C164.73 23.4707 164.562 23.7508 164.338 23.9748C164.114 24.2547 163.89 24.4788 163.555 24.7587C162.827 25.4867 162.044 25.9908 161.205 26.3268C160.365 26.6628 159.414 26.8308 158.351 26.8308C157.121 26.8308 155.946 26.6067 154.939 26.1588C153.932 25.7107 153.092 25.0947 152.365 24.3108C151.638 23.5267 151.078 22.5188 150.743 21.3988C150.351 20.2786 150.183 18.9906 150.183 17.5347C150.183 16.0226 150.351 14.6786 150.743 13.4466C151.134 12.2146 151.694 11.2066 152.365 10.3106C153.092 9.47059 153.932 8.79857 154.883 8.29456C155.89 7.84655 156.953 7.62256 158.184 7.62256C159.359 7.62256 160.422 7.84655 161.373 8.23856C162.324 8.68657 163.107 9.30258 163.778 10.0866C164.45 10.9266 164.953 11.8786 165.289 12.9986C165.625 14.1186 165.792 15.4066 165.792 16.8627V17.5347H151.973V17.8147ZM164.058 16.1907C164.002 15.6866 163.89 15.2386 163.834 14.9026C163.778 14.5666 163.722 14.2306 163.61 13.9506C163.555 13.6706 163.443 13.4466 163.387 13.2226C163.275 12.9986 163.163 12.7746 163.051 12.4946C162.547 11.5426 161.82 10.8146 160.981 10.3106C160.142 9.80658 159.191 9.58259 158.128 9.58259C157.121 9.58259 156.169 9.80658 155.274 10.3106C154.435 10.7586 153.708 11.4306 153.204 12.2706C152.925 12.7186 152.701 13.1666 152.589 13.7266C152.421 14.2866 152.253 15.0706 152.085 16.1347H164.058V16.1907Z" fill="black"/>
<path d="M167.807 21.9598H169.094C169.374 21.9598 169.598 21.9039 169.766 21.7918C169.878 21.6797 170.045 21.5117 170.101 21.2318L175.137 6.50361C175.193 6.39162 175.249 6.27962 175.249 6.16762C175.249 6.05561 175.305 5.99961 175.305 5.94361C175.305 5.83161 175.249 5.71961 175.137 5.71961C175.025 5.66362 174.801 5.66362 174.409 5.66362H173.346V1.35156H182.858L189.906 21.2318C190.075 21.7358 190.411 21.9598 190.97 21.9598H192.369V26.3278H182.297V21.9598H183.584C183.92 21.9598 184.088 21.7918 184.088 21.4558C184.088 21.3998 184.088 21.3437 184.088 21.2878C184.088 21.2318 184.088 21.1759 184.032 21.0078L183.473 18.9357H176.48L175.864 20.9517C175.808 21.1759 175.808 21.2878 175.808 21.4558C175.808 21.7918 175.976 21.9598 176.367 21.9598H177.654V26.3278H167.807V21.9598ZM177.654 15.0157H182.241L179.893 7.39963L177.654 15.0157Z" fill="black"/>
<path d="M200.928 7.95859V11.6546H199.978C199.529 11.6546 199.25 11.8226 199.25 12.1586C199.25 12.2706 199.25 12.3266 199.25 12.3826C199.25 12.4386 199.306 12.5506 199.361 12.7746L200.703 18.9906L203.445 7.90259H208.312L211.279 19.1027L212.676 12.7746C212.733 12.4386 212.733 12.2146 212.733 12.1586C212.733 12.1026 212.733 12.0466 212.733 11.9906C212.733 11.7666 212.453 11.5986 211.949 11.5986H211.054V7.90259H220.398V11.5986H219.334C218.888 11.5986 218.607 11.6546 218.44 11.8226C218.271 11.9906 218.104 12.2706 217.992 12.7186L214.132 26.2708H209.04L206.187 15.1827H205.795L202.999 26.2708H198.02L194.102 13.1107C193.879 12.4386 193.712 11.9906 193.599 11.8786C193.487 11.7106 193.207 11.6546 192.928 11.6546H191.808V7.95859H200.928Z" fill="black"/>
<path d="M221.793 14.1186C221.906 13.0546 222.018 12.2706 222.242 11.6546C222.409 11.0946 222.744 10.5906 223.136 10.1426C223.864 9.35857 224.815 8.74257 226.045 8.29456C227.277 7.84655 228.62 7.62256 230.13 7.62256C231.808 7.62256 233.264 7.90257 234.494 8.40658C235.724 8.91057 236.619 9.69458 237.236 10.6466C237.459 11.0946 237.682 11.5986 237.851 12.2706C238.018 12.9426 238.074 13.5586 238.074 14.2866V21.2867C238.074 21.6787 238.131 22.0147 238.243 22.2387C238.354 22.5188 238.523 22.6307 238.746 22.6307L239.025 22.5747H239.865V26.3827H235.557C234.774 26.3827 234.271 26.2708 233.99 26.0467C233.71 25.8227 233.543 25.3187 233.431 24.5907C232.536 25.5428 231.696 26.1588 230.857 26.5507C230.017 26.8868 229.066 27.1107 227.892 27.1107C226.941 27.1107 225.991 26.9427 225.15 26.6628C224.312 26.3827 223.584 25.9908 222.969 25.4867C222.354 24.9827 221.85 24.3667 221.514 23.6947C221.178 23.0228 221.011 22.2387 221.011 21.4547C221.011 20.4467 221.291 19.4947 221.85 18.6546C222.409 17.8147 223.249 17.1427 224.423 16.5267C224.815 16.3587 225.15 16.1907 225.43 16.0787C225.766 15.9666 226.158 15.7986 226.606 15.6866C227.052 15.5747 227.667 15.4627 228.339 15.3506C229.066 15.2386 230.017 15.0706 231.193 14.8466C232.2 14.6786 232.703 14.2306 232.703 13.3906C232.703 12.8306 232.424 12.3266 231.865 11.8786C231.304 11.4306 230.633 11.2626 229.794 11.2626C229.066 11.2626 228.395 11.4866 227.78 11.8786C227.5 12.1026 227.277 12.3826 227.108 12.7186C226.941 13.0546 226.829 13.5586 226.66 14.1746H221.793V14.1186ZM232.928 17.1987C232.647 17.3667 232.424 17.4787 232.257 17.5347C232.088 17.5907 231.865 17.7027 231.696 17.7587C231.473 17.8147 231.249 17.9267 230.968 17.9827C230.689 18.0387 230.242 18.1508 229.738 18.3186C227.5 18.9347 226.381 19.8307 226.381 21.1187C226.381 21.7908 226.66 22.2946 227.165 22.6868C227.667 23.0788 228.395 23.2468 229.235 23.2468C230.299 23.2468 231.193 22.9667 231.921 22.4067C232.311 22.1268 232.536 21.7346 232.703 21.2308C232.872 20.7267 232.928 19.9987 232.982 18.9906L232.928 17.1987Z" fill="black"/>
<path d="M242.609 22.5759C243.057 22.5759 243.28 22.128 243.28 21.2879V12.8318C243.28 12.1598 243.001 11.8798 242.44 11.8798H241.379V8.01575H248.596L248.763 9.97576C249.546 9.13576 250.274 8.51976 250.833 8.23974C251.392 7.90373 252.009 7.79174 252.68 7.84774C253.071 7.90373 253.35 7.95973 253.519 7.95973C253.742 7.95973 253.854 8.01575 253.967 8.01575C254.078 8.01575 254.134 8.01575 254.19 8.01575C254.246 8.01575 254.246 8.01575 254.303 8.01575V11.9358C253.127 11.9918 252.176 12.1598 251.561 12.3278C250.946 12.4958 250.441 12.7758 250.049 13.1678C249.603 13.6158 249.323 14.0638 249.154 14.6238C248.988 15.1838 248.875 15.9678 248.875 16.9758V21.568C248.875 22.296 249.155 22.6318 249.713 22.6318H250.777V26.3839H241.266V22.6318H242.609V22.5759Z" fill="black"/>
<path d="M260.962 18.6553C261.298 20.0553 261.801 21.1194 262.416 21.7912C263.087 22.4633 263.984 22.7993 265.102 22.7993C265.885 22.7993 266.557 22.6313 267.06 22.2393C267.564 21.9033 267.956 21.2874 268.292 20.4473H274.053C273.717 21.5113 273.382 22.4074 272.99 23.0233C272.6 23.6953 272.039 24.2553 271.368 24.8153C269.634 26.2154 267.564 26.8874 265.158 26.8874C263.759 26.8874 262.472 26.6633 261.298 26.1594C260.122 25.6554 259.115 24.9833 258.277 24.0873C257.436 23.1913 256.765 22.1834 256.262 21.0073C255.758 19.8314 255.535 18.4873 255.535 17.0873C255.535 15.6873 255.758 14.4552 256.206 13.2232C256.654 12.0472 257.326 10.9832 258.108 10.1432C258.948 9.30318 259.899 8.63118 261.019 8.12717C262.136 7.62316 263.367 7.39917 264.655 7.39917C265.998 7.39917 267.285 7.67916 268.515 8.18317C269.745 8.68718 270.809 9.4712 271.703 10.4232C272.654 11.3752 273.271 12.3832 273.661 13.4472C274.053 14.5112 274.222 15.8553 274.222 17.4793C274.222 17.5353 274.222 17.6473 274.222 17.9273C274.222 18.1512 274.222 18.3754 274.166 18.5993H260.962V18.6553ZM268.292 15.0153C268.179 13.8392 267.843 12.9432 267.228 12.3272C266.613 11.7112 265.829 11.3752 264.766 11.3752C263.702 11.3752 262.808 11.7112 262.193 12.3272C261.521 12.9992 261.186 13.8392 261.129 15.0153H268.292Z" fill="black"/>
</g>
<defs>
<clipPath id="clip0_15_514">
<rect width="274.191" height="28.1489" fill="white" transform="translate(0.468079 0.425537)"/>
</clipPath>
</defs>
</svg>
