<svg width="129" height="45" viewBox="0 0 129 45" fill="none" xmlns="http://www.w3.org/2000/svg">
<g clip-path="url(#clip0_15_528)">
<mask id="mask0_15_528" style="mask-type:luminance" maskUnits="userSpaceOnUse" x="1" y="0" width="128" height="44">
<path d="M128.365 0.638184H1.95096V43.7437H128.365V0.638184Z" fill="white"/>
</mask>
<g mask="url(#mask0_15_528)">
<path d="M1.95096 0.638184V13.3186C1.95096 25.6401 10.1166 37.0845 23.5635 43.7438C37.0105 37.1243 45.176 25.6401 45.176 13.3186V0.678063H1.95096V0.638184ZM33.7198 14.9137C32.1353 16.4289 30.5916 17.9044 29.0073 19.4197C28.8448 19.5791 28.8042 19.6988 28.8448 19.938C29.251 22.1312 29.6167 24.3642 29.9822 26.5574C29.9822 26.5972 29.9822 26.6769 30.023 26.7567C29.8605 26.6769 29.7792 26.6371 29.6573 26.5972C27.748 25.6003 25.798 24.6035 23.8885 23.6066C23.6448 23.4869 23.4824 23.4869 23.2385 23.6066C21.3291 24.6035 19.4198 25.5605 17.5104 26.5574C17.3885 26.6371 17.2666 26.6769 17.0635 26.7567C17.2666 25.5605 17.4698 24.4439 17.6729 23.2876C17.876 22.171 18.0791 21.0146 18.2822 19.8981C18.323 19.6988 18.2822 19.5393 18.1198 19.3798C16.576 17.9044 15.0322 16.4289 13.4479 14.9536C13.3666 14.8738 13.2854 14.794 13.1229 14.6345C13.4072 14.5947 13.6104 14.5548 13.8135 14.5149C15.8854 14.1959 17.9166 13.8769 19.9886 13.5978C20.2322 13.5579 20.3542 13.4781 20.4353 13.2788C21.4104 11.3647 22.3853 9.49058 23.3197 7.57655C23.3605 7.45693 23.4416 7.37716 23.5229 7.17779C23.6041 7.3373 23.6448 7.41704 23.726 7.53667C24.7011 9.4507 25.676 11.3647 26.6104 13.2788C26.7323 13.4781 26.8542 13.5579 27.0573 13.5978C29.2917 13.9168 31.526 14.2358 33.7604 14.5548C33.801 14.5548 33.8417 14.5947 33.9636 14.5947C33.8823 14.7542 33.801 14.8339 33.7198 14.9137Z" fill="black"/>
<path d="M73.7058 12.0858C72.1454 11.6551 70.9753 11.0807 70.2927 10.4586C69.6101 9.83638 69.2199 9.02277 69.2199 8.06558C69.2199 7.01267 69.6587 6.10333 70.5365 5.38543C71.4141 4.66755 72.5356 4.33252 73.9497 4.33252C74.9248 4.33252 75.7537 4.52396 76.485 4.85898C77.2165 5.19399 77.8016 5.72045 78.2404 6.34264C78.6792 6.9648 78.8742 7.6827 78.8742 8.44845H77.0215C77.0215 7.63484 76.7777 6.9648 76.2412 6.48621C75.7049 6.0076 74.9736 5.76831 73.9983 5.76831C73.1207 5.76831 72.3892 5.95975 71.9018 6.34264C71.4141 6.72552 71.1215 7.25196 71.1215 7.96985C71.1215 8.54417 71.3653 8.9749 71.8529 9.35778C72.3406 9.74066 73.1694 10.0757 74.291 10.4107C75.4124 10.7457 76.3388 11.0807 76.9726 11.4636C77.6064 11.8465 78.0941 12.2772 78.4354 12.8037C78.7767 13.3301 78.923 13.9044 78.923 14.6223C78.923 15.7231 78.4842 16.6325 77.6064 17.2546C76.7288 17.8769 75.5586 18.2597 74.0958 18.2597C73.1207 18.2597 72.2431 18.0683 71.4141 17.7332C70.5852 17.3982 69.9514 16.8717 69.5124 16.2496C69.0736 15.6274 68.83 14.9095 68.83 14.1437H70.6827C70.6827 14.9574 70.9753 15.6274 71.6091 16.106C72.2431 16.5846 73.0719 16.8239 74.0958 16.8239C75.0711 16.8239 75.8024 16.6325 76.3389 16.2496C76.8751 15.8667 77.119 15.3402 77.119 14.6702C77.119 14.0002 76.8751 13.4737 76.3875 13.1387C75.8999 12.8037 74.9736 12.4208 73.7058 12.0858Z" fill="black"/>
<path d="M85.2126 18.3548C83.7985 18.3548 82.6771 17.9241 81.7995 17.0147C80.9219 16.1054 80.4829 14.9089 80.4829 13.4253V13.0902C80.4829 12.0852 80.6781 11.1759 81.068 10.4101C81.4582 9.64435 81.9945 9.02216 82.7259 8.54357C83.4572 8.06498 84.1887 7.87354 85.0176 7.87354C86.3341 7.87354 87.4068 8.30428 88.1381 9.16575C88.8696 10.0272 89.2596 11.2716 89.2596 12.8988V13.6167H82.2871C82.3358 14.6217 82.6285 15.4354 83.1648 16.0097C83.7011 16.584 84.4325 16.919 85.3101 16.919C85.9439 16.919 86.4804 16.7754 86.8704 16.5361C87.2605 16.2968 87.6993 15.9618 87.9918 15.5311L89.0646 16.3447C88.2356 17.6848 86.9192 18.3548 85.2126 18.3548ZM84.9688 9.26146C84.2374 9.26146 83.6524 9.50077 83.1648 10.0272C82.6771 10.5537 82.3846 11.2237 82.2871 12.1809H87.4555V12.0373C87.4068 11.1759 87.163 10.458 86.7242 9.97936C86.2852 9.50077 85.7489 9.26146 84.9688 9.26146Z" fill="black"/>
<path d="M95.4037 16.919C96.0375 16.919 96.574 16.7276 97.0615 16.3447C97.5491 15.9618 97.7929 15.4832 97.8416 14.9568H99.4995C99.4507 15.5311 99.2557 16.1054 98.9144 16.6318C98.5731 17.1583 98.0368 17.5891 97.4028 17.8761C96.769 18.1634 96.135 18.3548 95.4037 18.3548C93.9897 18.3548 92.8682 17.8761 92.0393 16.9669C91.2105 16.0575 90.8203 14.8132 90.8203 13.186V12.8988C90.8203 11.8937 91.0153 11.0323 91.3566 10.2665C91.698 9.50077 92.2344 8.92645 92.9657 8.49572C93.6972 8.06498 94.4773 7.87354 95.4037 7.87354C96.574 7.87354 97.5003 8.20855 98.2806 8.87858C99.0607 9.54862 99.4507 10.458 99.4995 11.5109H97.8416C97.7929 10.8408 97.5491 10.3144 97.0615 9.88365C96.574 9.45291 96.0375 9.26146 95.4037 9.26146C94.5261 9.26146 93.7947 9.59648 93.307 10.2187C92.8196 10.8408 92.5757 11.7502 92.5757 12.9467V13.2817C92.5757 14.4303 92.8196 15.3396 93.307 15.9618C93.7947 16.584 94.4773 16.919 95.4037 16.919Z" fill="black"/>
<path d="M107.837 17.1595C107.154 17.9732 106.13 18.356 104.814 18.356C103.692 18.356 102.863 18.0209 102.327 17.3988C101.791 16.7766 101.449 15.8673 101.449 14.6229V8.01831H103.205V14.5751C103.205 16.1066 103.839 16.8723 105.106 16.8723C106.472 16.8723 107.349 16.3937 107.788 15.3887V8.01831H109.543V18.1166H107.885L107.837 17.1595Z" fill="black"/>
<path d="M117.199 9.59648C116.955 9.54862 116.663 9.54863 116.322 9.54863C115.151 9.54863 114.371 10.0272 113.981 10.9844V18.1634H112.226V8.06498H113.933L113.981 9.21362C114.566 8.30428 115.395 7.87354 116.419 7.87354C116.761 7.87354 117.004 7.9214 117.199 8.01713V9.59648Z" fill="black"/>
<path d="M122.903 18.3548C121.489 18.3548 120.368 17.9241 119.49 17.0147C118.612 16.1054 118.173 14.9089 118.173 13.4253V13.0902C118.173 12.0852 118.368 11.1759 118.759 10.4101C119.148 9.64435 119.685 9.02216 120.416 8.54357C121.148 8.06498 121.879 7.87354 122.708 7.87354C124.025 7.87354 125.097 8.30428 125.829 9.16575C126.56 10.0272 126.95 11.2716 126.95 12.8988V13.6167H119.977C120.026 14.6217 120.319 15.4354 120.855 16.0097C121.392 16.584 122.123 16.919 123.001 16.919C123.634 16.919 124.171 16.7754 124.561 16.5361C124.951 16.2968 125.39 15.9618 125.682 15.5311L126.755 16.3447C125.926 17.6848 124.658 18.3548 122.903 18.3548ZM122.708 9.26146C121.977 9.26146 121.392 9.50077 120.904 10.0272C120.416 10.5537 120.124 11.2237 120.026 12.1809H125.195V12.0373C125.146 11.1759 124.902 10.458 124.463 9.97936C124.025 9.50077 123.439 9.26146 122.708 9.26146Z" fill="black"/>
<path d="M69.6584 37.3069V23.7148H74.1931C75.7045 23.7148 76.826 24.0019 77.6063 24.6242C78.3864 25.2463 78.7277 26.1557 78.7277 27.3521C78.7277 27.9744 78.5325 28.5487 78.1912 29.0272C77.8499 29.5058 77.3136 29.8888 76.6798 30.1759C77.4111 30.3672 78.0451 30.7502 78.435 31.3723C78.8252 31.9946 79.069 32.6167 79.069 33.4303C79.069 34.6747 78.6789 35.6318 77.8499 36.3018C77.0211 36.9719 75.8997 37.3548 74.4368 37.3548H69.6584V37.3069ZM71.4624 29.5058H74.2418C75.0219 29.5058 75.7045 29.3144 76.1433 28.9315C76.631 28.5487 76.8748 28.0221 76.8748 27.3521C76.8748 26.5864 76.631 26.06 76.1922 25.7249C75.7534 25.3899 75.0707 25.1984 74.1443 25.1984H71.4624V29.5058ZM71.4624 30.9416V35.8234H74.4856C75.3146 35.8234 75.9972 35.584 76.4847 35.1532C76.9723 34.7225 77.2161 34.1004 77.2161 33.3824C77.2161 31.7552 76.2897 30.9416 74.4856 30.9416H71.4624Z" fill="black"/>
<path d="M85.7976 37.4998C84.3835 37.4998 83.2621 37.069 82.3845 36.1597C81.5069 35.2503 81.0679 34.0539 81.0679 32.5702V32.2352C81.0679 31.2301 81.263 30.3208 81.653 29.5551C82.0432 28.7893 82.5794 28.1672 83.3109 27.6886C84.0422 27.2099 84.7737 27.0186 85.6026 27.0186C86.919 27.0186 87.9918 27.4493 88.7231 28.3107C89.4546 29.1723 89.8445 30.4167 89.8445 32.0438V32.7618H82.8721C82.9208 33.7668 83.2134 34.5803 83.7497 35.1546C84.286 35.729 85.0175 36.064 85.8951 36.064C86.5291 36.064 87.0654 35.9204 87.4553 35.6811C87.8455 35.4419 88.2843 35.1069 88.5769 34.676L89.6495 35.4897C88.8206 36.8297 87.5042 37.4998 85.7976 37.4998ZM85.5538 28.4064C84.8225 28.4064 84.2374 28.6457 83.7497 29.1723C83.2621 29.6987 82.9696 30.3687 82.8721 31.3258H88.0405V31.1824C87.9918 30.3208 87.748 29.603 87.3092 29.1243C86.8704 28.6457 86.2852 28.4064 85.5538 28.4064Z" fill="black"/>
<path d="M94.2336 24.7208V27.1616H96.1354V28.5017H94.2336V34.7713C94.2336 35.1542 94.3311 35.4892 94.4775 35.6806C94.6725 35.872 94.9651 35.9677 95.3551 35.9677C95.5502 35.9677 95.8427 35.92 96.184 35.872V37.26C95.6964 37.4037 95.2576 37.4514 94.8188 37.4514C94.0387 37.4514 93.4535 37.2121 93.0147 36.7336C92.5759 36.255 92.4296 35.5849 92.4296 34.7235V28.4539H90.5767V27.1138H92.4296V24.6729H94.2336V24.7208Z" fill="black"/>
<path d="M100.62 24.7208V27.1616H102.522V28.5017H100.62V34.7713C100.62 35.1542 100.718 35.4892 100.864 35.6806C101.059 35.872 101.352 35.9677 101.742 35.9677C101.937 35.9677 102.229 35.92 102.571 35.872V37.26C102.083 37.4037 101.644 37.4514 101.205 37.4514C100.425 37.4514 99.8401 37.2121 99.4013 36.7336C98.9625 36.255 98.8162 35.5849 98.8162 34.7235V28.4539H96.9634V27.1138H98.8162V24.6729H100.62V24.7208Z" fill="black"/>
<path d="M104.57 24.4809C104.57 24.1938 104.667 23.9545 104.813 23.7629C104.96 23.5715 105.252 23.4758 105.594 23.4758C105.935 23.4758 106.179 23.5715 106.374 23.7629C106.569 23.9545 106.618 24.1938 106.618 24.4809C106.618 24.768 106.52 25.0073 106.374 25.1988C106.228 25.3902 105.935 25.4859 105.594 25.4859C105.252 25.4859 105.009 25.3902 104.813 25.1988C104.618 25.0073 104.57 24.768 104.57 24.4809ZM106.471 37.3072H104.716V27.2089H106.471V37.3072Z" fill="black"/>
<path d="M110.959 27.1622L111.008 28.4543C111.788 27.4972 112.812 27.0186 114.079 27.0186C116.274 27.0186 117.346 28.215 117.395 30.6558V37.3561H115.64V30.6558C115.64 29.938 115.445 29.4114 115.152 29.0287C114.859 28.6457 114.323 28.5023 113.592 28.5023C113.007 28.5023 112.519 28.6457 112.08 28.933C111.641 29.22 111.3 29.603 111.056 30.1294V37.3561H109.301V27.2579H110.959V27.1622Z" fill="black"/>
<path d="M119.637 32.1384C119.637 30.5592 120.027 29.3148 120.758 28.3576C121.49 27.4004 122.465 26.9697 123.732 26.9697C125 26.9697 125.975 27.4004 126.658 28.2619L126.756 27.1611H128.364V37.0202C128.364 38.3124 127.975 39.3653 127.194 40.1311C126.414 40.8968 125.341 41.2797 124.025 41.2797C123.294 41.2797 122.562 41.1361 121.831 40.8011C121.099 40.4661 120.563 40.0831 120.222 39.509L121.148 38.456C121.88 39.3653 122.806 39.844 123.927 39.844C124.805 39.844 125.439 39.6047 125.927 39.126C126.414 38.6474 126.658 37.9773 126.658 37.1159V36.2545C125.975 37.068 125 37.4509 123.781 37.4509C122.562 37.4509 121.587 36.9723 120.856 36.0152C120.124 35.0579 119.637 33.8137 119.637 32.1384ZM121.441 32.33C121.441 33.4785 121.685 34.3878 122.172 35.0101C122.66 35.6322 123.294 35.9672 124.171 35.9672C125.293 35.9672 126.122 35.4888 126.609 34.4837V29.8892C126.073 28.9319 125.244 28.4532 124.171 28.4532C123.294 28.4532 122.66 28.7883 122.172 29.4583C121.685 30.1283 121.441 31.0856 121.441 32.33Z" fill="black"/>
</g>
</g>
<defs>
<clipPath id="clip0_15_528">
<rect width="128.234" height="44.8298" fill="white" transform="translate(0.595734 0.170166)"/>
</clipPath>
</defs>
</svg>
