<svg width="19" height="9" viewBox="0 0 19 9" fill="none" xmlns="http://www.w3.org/2000/svg">
<path d="M1 4C0.723858 4 0.5 4.22386 0.5 4.5C0.5 4.77614 0.723858 5 1 5L1 4ZM18.3536 4.85355C18.5488 4.65829 18.5488 4.34171 18.3536 4.14645L15.1716 0.964467C14.9763 0.769205 14.6597 0.769205 14.4645 0.964467C14.2692 1.15973 14.2692 1.47631 14.4645 1.67157L17.2929 4.5L14.4645 7.32843C14.2692 7.52369 14.2692 7.84027 14.4645 8.03554C14.6597 8.2308 14.9763 8.2308 15.1716 8.03554L18.3536 4.85355ZM1 5L18 5L18 4L1 4L1 5Z" fill="white"/>
</svg>
