<svg width="32" height="32" viewBox="0 0 32 32" fill="none" xmlns="http://www.w3.org/2000/svg">
<path d="M8.92857 8.14286C8.72019 8.14286 8.52034 8.22564 8.37299 8.37299C8.22564 8.52034 8.14286 8.72019 8.14286 8.92857C8.14286 9.13696 8.22564 9.3368 8.37299 9.48416C8.52034 9.63151 8.72019 9.71429 8.92857 9.71429H23.0714C23.2798 9.71429 23.4797 9.63151 23.627 9.48416C23.7744 9.3368 23.8571 9.13696 23.8571 8.92857C23.8571 8.72019 23.7744 8.52034 23.627 8.37299C23.4797 8.22564 23.2798 8.14286 23.0714 8.14286H8.92857ZM10.5 17.5714C11.1252 17.5714 11.7247 17.3231 12.1668 16.881C12.6088 16.439 12.8571 15.8394 12.8571 15.2143C12.8571 14.5891 12.6088 13.9896 12.1668 13.5475C11.7247 13.1055 11.1252 12.8571 10.5 12.8571C9.87485 12.8571 9.2753 13.1055 8.83325 13.5475C8.3912 13.9896 8.14286 14.5891 8.14286 15.2143C8.14286 15.8394 8.3912 16.439 8.83325 16.881C9.2753 17.3231 9.87485 17.5714 10.5 17.5714ZM10.5 16C10.2916 16 10.0918 15.9172 9.94442 15.7699C9.79707 15.6225 9.71429 15.4227 9.71429 15.2143C9.71429 15.0059 9.79707 14.8061 9.94442 14.6587C10.0918 14.5114 10.2916 14.4286 10.5 14.4286C10.7084 14.4286 10.9082 14.5114 11.0556 14.6587C11.2029 14.8061 11.2857 15.0059 11.2857 15.2143C11.2857 15.4227 11.2029 15.6225 11.0556 15.7699C10.9082 15.9172 10.7084 16 10.5 16ZM12.8571 21.5C12.8571 22.1252 12.6088 22.7247 12.1668 23.1668C11.7247 23.6088 11.1252 23.8571 10.5 23.8571C9.87485 23.8571 9.2753 23.6088 8.83325 23.1668C8.3912 22.7247 8.14286 22.1252 8.14286 21.5C8.14286 20.8748 8.3912 20.2753 8.83325 19.8332C9.2753 19.3912 9.87485 19.1429 10.5 19.1429C11.1252 19.1429 11.7247 19.3912 12.1668 19.8332C12.6088 20.2753 12.8571 20.8748 12.8571 21.5ZM11.2857 21.5C11.2857 21.2916 11.2029 21.0918 11.0556 20.9444C10.9082 20.7971 10.7084 20.7143 10.5 20.7143C10.2916 20.7143 10.0918 20.7971 9.94442 20.9444C9.79707 21.0918 9.71429 21.2916 9.71429 21.5C9.71429 21.7084 9.79707 21.9082 9.94442 22.0556C10.0918 22.2029 10.2916 22.2857 10.5 22.2857C10.7084 22.2857 10.9082 22.2029 11.0556 22.0556C11.2029 21.9082 11.2857 21.7084 11.2857 21.5ZM14.4286 15.2143C14.4286 15.0059 14.5114 14.8061 14.6587 14.6587C14.8061 14.5114 15.0059 14.4286 15.2143 14.4286H23.0714C23.2798 14.4286 23.4797 14.5114 23.627 14.6587C23.7744 14.8061 23.8571 15.0059 23.8571 15.2143C23.8571 15.4227 23.7744 15.6225 23.627 15.7699C23.4797 15.9172 23.2798 16 23.0714 16H15.2143C15.0059 16 14.8061 15.9172 14.6587 15.7699C14.5114 15.6225 14.4286 15.4227 14.4286 15.2143ZM15.2143 20.7143C15.0059 20.7143 14.8061 20.7971 14.6587 20.9444C14.5114 21.0918 14.4286 21.2916 14.4286 21.5C14.4286 21.7084 14.5114 21.9082 14.6587 22.0556C14.8061 22.2029 15.0059 22.2857 15.2143 22.2857H23.0714C23.2798 22.2857 23.4797 22.2029 23.627 22.0556C23.7744 21.9082 23.8571 21.7084 23.8571 21.5C23.8571 21.2916 23.7744 21.0918 23.627 20.9444C23.4797 20.7971 23.2798 20.7143 23.0714 20.7143H15.2143ZM9.71429 5C8.46398 5 7.26488 5.49668 6.38078 6.38078C5.49668 7.26488 5 8.46398 5 9.71429V22.2857C5 23.536 5.49668 24.7351 6.38078 25.6192C7.26488 26.5033 8.46398 27 9.71429 27H22.2857C23.536 27 24.7351 26.5033 25.6192 25.6192C26.5033 24.7351 27 23.536 27 22.2857V9.71429C27 8.46398 26.5033 7.26488 25.6192 6.38078C24.7351 5.49668 23.536 5 22.2857 5H9.71429ZM6.57143 9.71429C6.57143 8.88075 6.90255 8.08135 7.49195 7.49195C8.08135 6.90255 8.88075 6.57143 9.71429 6.57143H22.2857C23.1193 6.57143 23.9186 6.90255 24.508 7.49195C25.0974 8.08135 25.4286 8.88075 25.4286 9.71429V22.2857C25.4286 23.1193 25.0974 23.9186 24.508 24.508C23.9186 25.0974 23.1193 25.4286 22.2857 25.4286H9.71429C8.88075 25.4286 8.08135 25.0974 7.49195 24.508C6.90255 23.9186 6.57143 23.1193 6.57143 22.2857V9.71429Z" fill="#EEC22A"/>
</svg>
