<svg width="32" height="32" viewBox="0 0 32 32" fill="none" xmlns="http://www.w3.org/2000/svg">
<path d="M28 10.6667C28 8.45732 23.8213 6.66666 18.6666 6.66666C13.512 6.66666 9.33331 8.45732 9.33331 10.6667M28 10.6667V16C28 17.36 26.4186 18.56 24 19.2827C22.488 19.736 20.6493 20 18.6666 20C16.684 20 14.8453 19.7347 13.3333 19.2827C10.916 18.56 9.33331 17.36 9.33331 16V10.6667M28 10.6667C28 12.0267 26.4186 13.2267 24 13.9493C22.488 14.4027 20.6493 14.6667 18.6666 14.6667C16.684 14.6667 14.8453 14.4013 13.3333 13.9493C10.916 13.2267 9.33331 12.0267 9.33331 10.6667" stroke="#EEC22A" stroke-width="2" stroke-linecap="round" stroke-linejoin="round"/>
<path d="M4 16V21.3333C4 22.6933 5.58267 23.8933 8 24.616C9.512 25.0693 11.3507 25.3333 13.3333 25.3333C15.316 25.3333 17.1547 25.068 18.6667 24.616C21.084 23.8933 22.6667 22.6933 22.6667 21.3333V20M4 16C4 14.404 6.18 13.0266 9.33333 12.3853M4 16C4 17.36 5.58267 18.56 8 19.2826C9.512 19.736 11.3507 20 13.3333 20C14.26 20 15.1547 19.9426 16 19.8346" stroke="#EEC22A" stroke-width="2" stroke-linecap="round" stroke-linejoin="round"/>
</svg>
