<svg width="44" height="44" viewBox="0 0 44 44" fill="none" xmlns="http://www.w3.org/2000/svg">
<path fill-rule="evenodd" clip-rule="evenodd" d="M22 40.3334C32.1252 40.3334 40.3333 32.1253 40.3333 22.0001C40.3333 11.8749 32.1252 3.66675 22 3.66675C11.8748 3.66675 3.66666 11.8749 3.66666 22.0001C3.66666 32.1253 11.8748 40.3334 22 40.3334ZM7.33332 22.0001C7.33332 13.8999 13.8998 7.33341 22 7.33341C30.1002 7.33341 36.6667 13.8999 36.6667 22.0001C36.6667 30.1003 30.1002 36.6667 22 36.6667C13.8998 36.6667 7.33332 30.1003 7.33332 22.0001Z" fill="#F86F3D"/>
<path fill-rule="evenodd" clip-rule="evenodd" d="M22 34.1255C28.6966 34.1255 34.1254 28.6968 34.1254 22.0001C34.1254 15.3035 28.6966 9.87476 22 9.87476C15.3033 9.87476 9.87463 15.3035 9.87463 22.0001C9.87463 28.6968 15.3033 34.1255 22 34.1255ZM26.4091 27.5001C27.1364 26.7069 27.5 25.7707 27.5 24.6916C27.5 23.7424 27.2636 22.9947 26.7909 22.4486C26.3303 21.8895 25.7788 21.4865 25.1364 21.2394C24.5061 20.9794 23.7061 20.7388 22.7364 20.5178C21.8758 20.3228 21.2515 20.1342 20.8636 19.9522C20.4758 19.7702 20.2818 19.4971 20.2818 19.133C20.2818 18.769 20.4455 18.4764 20.7727 18.2554C21.1 18.0213 21.6212 17.9043 22.3364 17.9043C23.4404 17.9043 24.5785 18.2339 25.7508 18.8931C25.8103 18.9265 25.8859 18.9 25.9105 18.8363L26.9397 16.1759C26.9589 16.1263 26.9403 16.07 26.8948 16.0424C26.4164 15.7523 25.8727 15.5148 25.2636 15.3299C24.664 15.1443 24.037 15.0176 23.3825 14.9497C23.3255 14.9438 23.2818 14.896 23.2818 14.8386V12.9445C23.2818 12.8831 23.2321 12.8334 23.1707 12.8334H21.2111C21.1497 12.8334 21.1 12.8831 21.1 12.9445V14.881C21.1 14.9369 21.0583 14.9841 21.0029 14.9918C19.6322 15.1836 18.5797 15.6734 17.8455 16.4611C17.0939 17.2542 16.7182 18.2099 16.7182 19.3281C16.7182 20.2773 16.9485 21.0314 17.4091 21.5905C17.8697 22.1496 18.4212 22.5592 19.0636 22.8192C19.7061 23.0663 20.5061 23.3003 21.4636 23.5213C22.3364 23.7294 22.9667 23.9309 23.3545 24.1259C23.7545 24.308 23.9545 24.594 23.9545 24.9841C23.9545 25.7252 23.2636 26.0958 21.8818 26.0958C21.1545 26.0958 20.4151 25.9723 19.6636 25.7252C18.9619 25.4946 18.3394 25.1958 17.7962 24.8291C17.7371 24.7892 17.6558 24.8127 17.6285 24.8785L16.5335 27.5169C16.5138 27.5642 16.529 27.619 16.5709 27.6485C17.0926 28.0166 17.7416 28.3312 18.5182 28.5923C19.2995 28.8424 20.1257 29.0024 20.9968 29.072C21.0549 29.0767 21.1 29.125 21.1 29.1833V31.0556C21.1 31.117 21.1497 31.1667 21.2111 31.1667H23.1707C23.2321 31.1667 23.2818 31.117 23.2818 31.0556V29.0965C23.2818 29.0419 23.3216 28.9955 23.3753 28.9862C24.699 28.7577 25.7103 28.2624 26.4091 27.5001Z" fill="#F86F3D"/>
</svg>
