<svg width="165" height="45" viewBox="0 0 165 45" fill="none" xmlns="http://www.w3.org/2000/svg">
<g clip-path="url(#clip0_15_547)">
<mask id="mask0_15_547" style="mask-type:luminance" maskUnits="userSpaceOnUse" x="2" y="0" width="162" height="44">
<path d="M163.917 0.510498H2.2041V43.6161H163.917V0.510498Z" fill="white"/>
</mask>
<g mask="url(#mask0_15_547)">
<path d="M10.4352 43.5792C10.3593 43.4678 10.2455 43.3192 10.1317 43.2449C7.62828 40.7922 5.1248 38.3396 2.62135 35.8871C2.50755 35.7757 2.39376 35.7014 2.2041 35.5528C2.39376 35.3669 2.54548 35.2553 2.69721 35.1067C4.70756 33.3975 6.71791 31.6508 8.72828 29.9415C9.82829 29.0124 11.1559 28.4179 12.6352 28.4179C17.718 28.3809 22.8007 28.4179 27.8456 28.4179C27.8836 28.4179 27.9595 28.4179 28.0353 28.4552C27.9595 28.6038 27.8836 28.7524 27.8456 28.9011C27.087 30.3132 26.3283 31.6881 25.6077 33.1001C25.456 33.3975 25.3041 33.5089 24.9629 33.5089C22.3077 33.5089 19.6146 33.5089 16.9594 33.5089C16.8076 33.5089 16.6559 33.5089 16.4663 33.5089C16.4663 34.3636 16.4663 35.181 16.4663 36.0357C16.618 36.0357 16.7697 36.0357 16.8835 36.0357C20.1077 36.0357 23.2939 36.0357 26.518 36.0357C26.8595 36.0357 27.0112 35.9243 27.1629 35.6271C28.5663 32.9887 29.9697 30.3503 31.4112 27.6748C32.4353 25.7425 33.9525 24.4046 36.0766 23.7358C37.1766 23.3642 38.3525 23.327 39.5284 23.4013C39.4525 23.5499 39.4147 23.6615 39.3388 23.773C36.3044 29.4213 33.2698 35.0696 30.2732 40.7178C30.1215 40.978 29.9697 41.0896 29.6663 41.0896C24.5077 41.0896 19.349 41.0896 14.1904 41.0896C13.9628 41.0896 13.6593 41.201 13.4697 41.3496C12.5973 41.9814 11.7248 42.6874 10.8524 43.3563C10.7386 43.4306 10.7007 43.5421 10.5869 43.6164C10.549 43.5792 10.511 43.5792 10.4352 43.5792Z" fill="black"/>
<path d="M12.2175 24.8503C12.4831 23.3639 12.7106 21.9517 12.9762 20.5398C13.2037 19.1276 13.4693 17.7155 13.7348 16.3035C13.7727 16.0434 13.7348 15.8576 13.5072 15.6718C11.5727 13.8509 9.63821 11.9929 7.70371 10.1721C7.58993 10.0606 7.47613 9.94913 7.28647 9.80048C7.62786 9.72617 7.89337 9.68901 8.15889 9.65185C10.7382 9.24309 13.3175 8.87149 15.8969 8.49988C16.2003 8.46273 16.352 8.35125 16.4658 8.09114C17.6796 5.71288 18.8935 3.33466 20.0693 0.993579C20.1452 0.844939 20.2211 0.733459 20.3348 0.510498C20.4486 0.696299 20.5245 0.807778 20.5623 0.956418C21.7762 3.33466 22.9901 5.7129 24.2038 8.1283C24.3177 8.38841 24.4694 8.49988 24.7728 8.53706C27.5797 8.90864 30.3487 9.31741 33.1555 9.72617C33.1936 9.72617 33.2694 9.76332 33.3831 9.80048C33.2314 9.94913 33.1555 10.0606 33.0418 10.1349C31.0694 11.9929 29.1348 13.8881 27.1624 15.7461C26.9728 15.9319 26.8969 16.1177 26.9348 16.415C27.4279 19.1647 27.8831 21.9147 28.3762 24.6645C28.3762 24.7388 28.4143 24.8131 28.4143 24.9247C28.2245 24.8503 28.0728 24.776 27.9589 24.7017C25.5694 23.4754 23.1418 22.2119 20.7521 20.9857C20.4486 20.837 20.2211 20.837 19.9176 20.9857C17.5279 22.2119 15.1762 23.4382 12.7865 24.6645C12.5968 24.6645 12.4451 24.7388 12.2175 24.8503Z" fill="black"/>
<path d="M66.6005 12.9708H63.3774V18.3905H61.5494V4.95923H66.0713C67.6107 4.95923 68.8133 5.28912 69.631 5.99602C70.4489 6.70293 70.8819 7.6926 70.8819 9.01217C70.8819 9.86045 70.6413 10.5674 70.2083 11.18C69.7754 11.7927 69.102 12.2639 68.2841 12.5467L71.5072 18.2491V18.3434H69.583L66.6005 12.9708ZM63.3774 11.5099H66.1675C67.0815 11.5099 67.7551 11.2743 68.2841 10.8501C68.8133 10.3788 69.102 9.76619 69.102 9.01217C69.102 8.16387 68.8614 7.55122 68.3323 7.12708C67.8031 6.70293 67.0815 6.4673 66.1675 6.4673H63.4256V11.5099H63.3774Z" fill="black"/>
<path d="M77.3756 18.5786C75.9804 18.5786 74.8741 18.1544 74.0082 17.2591C73.1422 16.3637 72.7093 15.1855 72.7093 13.7245V13.3947C72.7093 12.405 72.9017 11.5096 73.2866 10.7555C73.6715 10.0015 74.2005 9.38887 74.9222 8.91759C75.6438 8.44632 76.3654 8.25781 77.1831 8.25781C78.4819 8.25781 79.5402 8.68195 80.2618 9.53024C80.9834 10.3785 81.3682 11.6038 81.3682 13.2062V13.9131H74.4892C74.5372 14.9027 74.8259 15.7039 75.3551 16.2694C75.8843 16.8349 76.6058 17.1648 77.4717 17.1648C78.097 17.1648 78.6263 17.0235 79.0112 16.7878C79.3959 16.5522 79.8289 16.2223 80.1175 15.7981L81.1758 16.5993C80.3581 17.9189 79.0592 18.5786 77.3756 18.5786ZM77.135 9.6245C76.4134 9.6245 75.8361 9.86013 75.3551 10.3785C74.8741 10.8969 74.5855 11.5567 74.4892 12.4992H79.5883V12.3579C79.5402 11.5096 79.2996 10.8027 78.8669 10.3314C78.4339 9.86013 77.9047 9.6245 77.135 9.6245Z" fill="black"/>
<path d="M89.2583 15.7508C89.2583 15.2795 89.0657 14.9496 88.7291 14.6669C88.3924 14.3841 87.767 14.1956 86.9011 14.0071C86.0352 13.8186 85.3136 13.5829 84.7845 13.3473C84.2553 13.1117 83.8706 12.7818 83.63 12.4048C83.3894 12.0278 83.245 11.6036 83.245 11.1323C83.245 10.3312 83.5819 9.62428 84.3033 9.05875C85.0249 8.49322 85.8909 8.21045 86.9974 8.21045C88.1518 8.21045 89.0657 8.49322 89.7874 9.10587C90.509 9.71852 90.8456 10.4254 90.8456 11.3208H89.114C89.114 10.8496 88.9214 10.4726 88.4886 10.0955C88.0557 9.71852 87.5745 9.57714 86.9492 9.57714C86.3238 9.57714 85.8428 9.71852 85.4579 10.0013C85.0732 10.2841 84.9288 10.6139 84.9288 11.0381C84.9288 11.4622 85.0732 11.745 85.4099 11.9806C85.7465 12.2163 86.3238 12.4048 87.1898 12.5933C88.0557 12.7818 88.7773 13.0174 89.3063 13.2531C89.8356 13.4887 90.2685 13.8186 90.509 14.1956C90.7495 14.5726 90.8939 14.9967 90.8939 15.5623C90.8939 16.4577 90.509 17.1646 89.7874 17.683C89.0657 18.2015 88.1037 18.4842 86.9492 18.4842C86.1315 18.4842 85.4099 18.3428 84.7845 18.0601C84.159 17.7773 83.678 17.4002 83.2933 16.8818C82.9084 16.3634 82.764 15.845 82.764 15.2324H84.4959C84.5439 15.7979 84.7363 16.2692 85.2175 16.5991C85.6985 16.929 86.2276 17.1175 86.9492 17.1175C87.6227 17.1175 88.1518 16.9761 88.5367 16.7405C88.9214 16.5048 89.2583 16.1749 89.2583 15.7508Z" fill="black"/>
<path d="M101.863 13.4887C101.863 14.9967 101.526 16.2221 100.805 17.1646C100.083 18.1071 99.1207 18.5313 97.9181 18.5313C96.6674 18.5313 95.7052 18.1542 94.9838 17.4002V22.2072H93.252V8.39896H94.8395L94.9356 9.48289C95.6572 8.63461 96.6194 8.21045 97.87 8.21045C99.0727 8.21045 100.035 8.68173 100.756 9.57714C101.478 10.4726 101.815 11.745 101.815 13.3473V13.4887H101.863ZM100.131 13.3002C100.131 12.1691 99.8905 11.2737 99.4093 10.6611C98.9283 10.0484 98.255 9.6714 97.389 9.6714C96.3307 9.6714 95.5609 10.1427 95.0318 11.0381V15.7979C95.5609 16.6933 96.3307 17.1646 97.4371 17.1646C98.255 17.1646 98.9283 16.8347 99.4093 16.1749C99.8905 15.5152 100.131 14.5726 100.131 13.3002Z" fill="black"/>
<path d="M103.594 13.3004C103.594 12.3107 103.786 11.4625 104.171 10.6613C104.556 9.86013 105.085 9.2946 105.807 8.87046C106.528 8.44632 107.298 8.25781 108.212 8.25781C109.607 8.25781 110.713 8.72908 111.579 9.67162C112.445 10.6142 112.878 11.8395 112.878 13.3947V13.536C112.878 14.5257 112.686 15.374 112.301 16.128C111.916 16.8821 111.387 17.4947 110.665 17.9189C109.944 18.343 109.174 18.5786 108.26 18.5786C106.865 18.5786 105.758 18.1073 104.892 17.1648C104.027 16.2223 103.594 14.997 103.594 13.4418V13.3004ZM105.374 13.4889C105.374 14.5728 105.614 15.4683 106.143 16.128C106.672 16.7878 107.346 17.1177 108.26 17.1177C109.126 17.1177 109.847 16.7878 110.376 16.0809C110.906 15.374 111.146 14.4315 111.146 13.2533C111.146 12.1693 110.906 11.2739 110.328 10.6142C109.751 9.95438 109.078 9.57738 108.212 9.57738C107.346 9.57738 106.672 9.90726 106.143 10.567C105.614 11.2268 105.374 12.2636 105.374 13.4889Z" fill="black"/>
<path d="M116.678 8.3992L116.726 9.67162C117.496 8.72908 118.506 8.25781 119.757 8.25781C121.921 8.25781 122.98 9.43599 123.028 11.8395V18.4372H121.296V11.8395C121.296 11.1326 121.104 10.6142 120.815 10.2372C120.526 9.86013 119.997 9.71875 119.276 9.71875C118.698 9.71875 118.217 9.86013 117.784 10.1429C117.351 10.4257 117.015 10.8027 116.774 11.3211V18.4372H115.042V8.3992H116.678Z" fill="black"/>
<path d="M131.589 15.7508C131.589 15.2795 131.397 14.9496 131.06 14.6669C130.724 14.3841 130.098 14.1956 129.232 14.0071C128.367 13.8186 127.645 13.5829 127.116 13.3473C126.587 13.1117 126.202 12.7818 125.961 12.4048C125.721 12.0278 125.576 11.6036 125.576 11.1323C125.576 10.3312 125.913 9.62428 126.635 9.05875C127.356 8.49322 128.222 8.21045 129.329 8.21045C130.483 8.21045 131.397 8.49322 132.119 9.10587C132.84 9.71852 133.177 10.4254 133.177 11.3208H131.445C131.445 10.8496 131.253 10.4726 130.82 10.0955C130.387 9.71852 129.906 9.57714 129.281 9.57714C128.655 9.57714 128.174 9.71852 127.789 10.0013C127.404 10.2841 127.26 10.6139 127.26 11.0381C127.26 11.4622 127.404 11.745 127.741 11.9806C128.078 12.2163 128.655 12.4048 129.521 12.5933C130.387 12.7818 131.108 13.0174 131.638 13.2531C132.167 13.4887 132.6 13.8186 132.84 14.1956C133.081 14.5726 133.225 14.9967 133.225 15.5623C133.225 16.4577 132.84 17.1646 132.119 17.683C131.397 18.2015 130.435 18.4842 129.281 18.4842C128.463 18.4842 127.741 18.3428 127.116 18.0601C126.49 17.7773 126.009 17.4002 125.624 16.8818C125.24 16.3634 125.095 15.845 125.095 15.2324H126.827C126.875 15.7979 127.068 16.2692 127.549 16.5991C128.03 16.929 128.559 17.1175 129.281 17.1175C129.954 17.1175 130.483 16.9761 130.868 16.7405C131.253 16.5048 131.589 16.1749 131.589 15.7508Z" fill="black"/>
<path d="M135.583 5.76018C135.583 5.4774 135.679 5.24177 135.824 5.05326C135.968 4.86475 136.257 4.77051 136.593 4.77051C136.93 4.77051 137.171 4.86475 137.363 5.05326C137.556 5.24177 137.604 5.4774 137.604 5.76018C137.604 6.04293 137.507 6.27856 137.363 6.46707C137.219 6.65558 136.93 6.74985 136.593 6.74985C136.257 6.74985 136.016 6.65558 135.824 6.46707C135.631 6.27856 135.583 6.04293 135.583 5.76018ZM137.459 18.3902H135.728V8.39929H137.459V18.3902Z" fill="black"/>
<path d="M148.86 13.4889C148.86 14.9969 148.524 16.2222 147.802 17.1648C147.081 18.1073 146.119 18.5315 144.916 18.5315C143.617 18.5315 142.655 18.1073 141.933 17.2119L141.837 18.343H140.25V4.20483H141.981V9.48308C142.703 8.63478 143.665 8.21063 144.868 8.21063C146.07 8.21063 147.081 8.68192 147.754 9.57732C148.428 10.4727 148.812 11.7452 148.812 13.3475V13.4889H148.86ZM147.129 13.3004C147.129 12.1222 146.888 11.2268 146.455 10.6141C146.022 10.0015 145.349 9.67158 144.483 9.67158C143.328 9.67158 142.511 10.19 142.03 11.2268V15.5153C142.559 16.5521 143.376 17.0705 144.531 17.0705C145.349 17.0705 146.022 16.7406 146.455 16.128C146.888 15.5153 147.129 14.5728 147.129 13.3004Z" fill="black"/>
<path d="M152.949 18.39H151.217V4.25195H152.949V18.39Z" fill="black"/>
<path d="M159.924 18.5786C158.529 18.5786 157.423 18.1544 156.557 17.2591C155.691 16.3637 155.258 15.1855 155.258 13.7245V13.3947C155.258 12.405 155.45 11.5096 155.835 10.7555C156.22 10.0015 156.749 9.38887 157.471 8.91759C158.192 8.44632 158.914 8.25781 159.732 8.25781C161.03 8.25781 162.089 8.68195 162.81 9.53024C163.532 10.3785 163.917 11.6038 163.917 13.2062V13.9131H157.038C157.086 14.9027 157.375 15.7039 157.904 16.2694C158.433 16.8349 159.154 17.1648 160.02 17.1648C160.646 17.1648 161.175 17.0235 161.56 16.7878C161.945 16.5522 162.378 16.2223 162.666 15.7981L163.724 16.5993C162.907 17.9189 161.656 18.5786 159.924 18.5786ZM159.732 9.6245C159.01 9.6245 158.433 9.86013 157.952 10.3785C157.471 10.8969 157.182 11.5567 157.086 12.4992H162.137V12.3579C162.089 11.5096 161.848 10.8027 161.415 10.3314C160.982 9.86013 160.453 9.6245 159.732 9.6245Z" fill="black"/>
<path d="M71.6994 35.4497C71.2184 36.1096 70.593 36.5808 69.7752 36.9106C68.9575 37.2407 67.9953 37.382 66.8889 37.382C65.7826 37.382 64.7723 37.1463 63.9064 36.6279C63.0405 36.1096 62.3671 35.4026 61.8859 34.46C61.4049 33.5175 61.1643 32.4337 61.1643 31.1612V29.9831C61.1643 27.9566 61.6455 26.4013 62.6075 25.2702C63.5697 24.1393 64.9166 23.6208 66.6483 23.6208C68.0915 23.6208 69.2461 23.9979 70.112 24.7047C70.9778 25.4116 71.507 26.4484 71.6994 27.7681H69.8714C69.5347 25.9772 68.4764 25.0818 66.6483 25.0818C65.4457 25.0818 64.5317 25.5059 63.9064 26.3072C63.2811 27.1553 62.9442 28.3335 62.9442 29.9358V31.0198C62.9442 32.5278 63.2811 33.706 64.0027 34.6014C64.7241 35.497 65.6382 35.9211 66.8409 35.9211C67.5142 35.9211 68.0915 35.8268 68.6208 35.6854C69.1498 35.544 69.5347 35.3083 69.8714 34.9314V32.0095H66.6965V30.5486H71.6994V35.4497Z" fill="black"/>
<path d="M80.6953 37.2404C80.5992 37.0519 80.503 36.6748 80.4549 36.2036C79.637 37.0048 78.675 37.429 77.5685 37.429C76.5582 37.429 75.7405 37.1462 75.1152 36.5807C74.4899 36.0151 74.153 35.3082 74.153 34.4599C74.153 33.4231 74.5379 32.622 75.3556 32.0565C76.1735 31.491 77.2798 31.2082 78.7711 31.2082H80.4549V30.4069C80.4549 29.7943 80.2624 29.3231 79.9257 28.9932C79.589 28.6632 79.0117 28.4748 78.3381 28.4748C77.7128 28.4748 77.1838 28.6162 76.7988 28.946C76.4141 29.276 76.1735 29.6059 76.1735 30.0771H74.4417C74.4417 29.5586 74.6342 29.0874 74.9709 28.6162C75.3076 28.1449 75.8368 27.7678 76.4141 27.5323C76.9912 27.2966 77.7128 27.1082 78.4344 27.1082C79.589 27.1082 80.503 27.3909 81.1765 27.9563C81.8499 28.5218 82.1866 29.3231 82.1866 30.3128V34.8841C82.1866 35.7794 82.2828 36.5334 82.5234 37.0519V37.1933H80.6953V37.2404ZM77.8091 35.9208C78.3381 35.9208 78.8674 35.7794 79.3484 35.4967C79.8294 35.2139 80.2143 34.8841 80.4067 34.4128V32.3863H79.0597C76.9432 32.3863 75.8849 32.999 75.8849 34.2244C75.8849 34.7427 76.0772 35.1668 76.4141 35.4967C76.7508 35.8267 77.2318 35.9208 77.8091 35.9208Z" fill="black"/>
<path d="M86.5155 27.2494L86.5636 28.3333C87.2852 27.4849 88.2954 27.0608 89.5941 27.0608C91.0373 27.0608 91.9995 27.5793 92.4805 28.6631C92.8172 28.1919 93.2502 27.8148 93.7794 27.485C94.3085 27.1551 94.982 27.0608 95.7035 27.0608C97.9163 27.0608 99.0709 28.239 99.1189 30.5482V37.2403H97.3873V30.6896C97.3873 29.9827 97.2429 29.4644 96.9062 29.0873C96.5694 28.7104 96.0403 28.569 95.2224 28.569C94.5971 28.569 94.0198 28.7574 93.6351 29.1343C93.2502 29.5114 92.9615 30.0299 92.9135 30.6425V37.2403H91.1816V30.7367C91.1816 29.2757 90.46 28.569 89.017 28.569C87.8624 28.569 87.0928 29.0402 86.6598 29.9827V37.2403H84.928V27.2494H86.5155Z" fill="black"/>
<path d="M110.328 32.3393C110.328 33.8473 109.991 35.0725 109.269 36.0151C108.548 36.9576 107.586 37.3817 106.383 37.3817C105.084 37.3817 104.122 36.9576 103.4 36.0622L103.304 37.1933H101.717V23.0552H103.449V28.3334C104.17 27.485 105.132 27.0609 106.335 27.0609C107.538 27.0609 108.548 27.5323 109.221 28.4277C109.895 29.3231 110.279 30.5955 110.279 32.1979V32.3393H110.328ZM108.596 32.1506C108.596 30.9725 108.355 30.0771 107.922 29.4645C107.489 28.8518 106.816 28.5218 105.95 28.5218C104.795 28.5218 103.978 29.0403 103.497 30.0771V34.3656C104.026 35.4025 104.844 35.9208 105.998 35.9208C106.816 35.9208 107.489 35.591 107.922 34.9783C108.355 34.3656 108.596 33.4231 108.596 32.1506Z" fill="black"/>
<path d="M114.418 37.2402H112.686V23.1021H114.418V37.2402Z" fill="black"/>
<path d="M117.206 24.6106C117.206 24.3278 117.302 24.0921 117.447 23.9036C117.591 23.7152 117.88 23.6208 118.216 23.6208C118.553 23.6208 118.794 23.7152 118.986 23.9036C119.179 24.0921 119.227 24.3278 119.227 24.6106C119.227 24.8933 119.13 25.1289 118.986 25.3175C118.842 25.5059 118.553 25.6003 118.216 25.6003C117.88 25.6003 117.639 25.5059 117.447 25.3175C117.254 25.1289 117.206 24.8933 117.206 24.6106ZM119.082 37.2407H117.35V27.2496H119.082V37.2407Z" fill="black"/>
<path d="M123.51 27.2495L123.558 28.5218C124.328 27.5794 125.338 27.1082 126.589 27.1082C128.753 27.1082 129.812 28.2863 129.86 30.6897V37.2876H128.128V30.6897C128.128 29.9828 127.936 29.4645 127.647 29.0874C127.358 28.7105 126.829 28.5691 126.108 28.5691C125.53 28.5691 125.049 28.7105 124.616 28.9932C124.183 29.276 123.847 29.6529 123.606 30.1714V37.2876H121.874V27.2495H123.51Z" fill="black"/>
<path d="M132.072 32.1505C132.072 30.5954 132.457 29.37 133.178 28.4276C133.9 27.485 134.862 27.0608 136.113 27.0608C137.363 27.0608 138.325 27.4849 138.999 28.3333L139.095 27.2494H140.683V36.9575C140.683 38.23 140.298 39.2667 139.528 40.0207C138.758 40.7747 137.7 41.1518 136.401 41.1518C135.68 41.1518 134.958 41.0104 134.237 40.6806C133.515 40.3506 132.986 39.9737 132.649 39.4081L133.563 38.3713C134.285 39.2667 135.199 39.738 136.305 39.738C137.171 39.738 137.796 39.5024 138.277 39.031C138.758 38.5598 138.999 37.9001 138.999 37.0518V36.2506C138.325 37.0518 137.363 37.4287 136.161 37.4287C134.958 37.4287 133.996 36.9575 133.274 36.015C132.553 35.0724 132.072 33.8001 132.072 32.1505ZM133.852 32.339C133.852 33.4701 134.092 34.3655 134.573 34.9783C135.054 35.5909 135.68 35.9207 136.545 35.9207C137.652 35.9207 138.47 35.4495 138.951 34.4598V29.9356C138.422 28.993 137.604 28.5217 136.545 28.5217C135.68 28.5217 135.054 28.8517 134.573 29.5114C134.092 30.1713 133.852 31.1137 133.852 32.339Z" fill="black"/>
</g>
</g>
<defs>
<clipPath id="clip0_15_547">
<rect width="163.681" height="44.8298" fill="white" transform="translate(0.638306 0.0424805)"/>
</clipPath>
</defs>
</svg>
