<svg width="72" height="73" viewBox="0 0 72 73" fill="none" xmlns="http://www.w3.org/2000/svg">
<path fill-rule="evenodd" clip-rule="evenodd" d="M36.8396 7.29728C36.4455 6.68834 35.5546 6.68834 35.1605 7.29728L29.9521 15.3457C29.6949 15.7431 29.1943 15.9058 28.7527 15.7354L19.8082 12.2855C19.1315 12.0245 18.4107 12.5482 18.4498 13.2725L18.9669 22.8452C18.9924 23.3179 18.683 23.7437 18.2256 23.8655L8.96158 26.3319C8.26068 26.5185 7.98536 27.3658 8.44272 27.9288L14.4877 35.3694C14.7862 35.7368 14.7862 36.2631 14.4877 36.6305L8.44272 44.0711C7.98536 44.6341 8.26068 45.4814 8.96159 45.668L18.2256 48.1344C18.683 48.2562 18.9924 48.682 18.9669 49.1547L18.4498 58.7274C18.4107 59.4517 19.1315 59.9754 19.8082 59.7144L28.7527 56.2645C29.1943 56.0942 29.6949 56.2568 29.9521 56.6542L35.1605 64.7026C35.5546 65.3116 36.4455 65.3116 36.8396 64.7026L42.048 56.6542C42.3052 56.2568 42.8057 56.0942 43.2474 56.2645L52.1918 59.7144C52.8686 59.9754 53.5894 59.4517 53.5502 58.7274L53.0332 49.1547C53.0077 48.682 53.317 48.2562 53.7745 48.1344L63.0385 45.668C63.7394 45.4814 64.0147 44.6341 63.5573 44.0711L57.5123 36.6305C57.2138 36.2631 57.2138 35.7368 57.5123 35.3694L63.5573 27.9288C64.0147 27.3658 63.7394 26.5185 63.0385 26.3319L53.7745 23.8655C53.317 23.7437 53.0077 23.3179 53.0332 22.8452L53.5502 13.2725C53.5894 12.5482 52.8686 12.0245 52.1918 12.2855L43.2474 15.7354C42.8057 15.9058 42.3052 15.7431 42.048 15.3457L36.8396 7.29728ZM46.0607 31.0606C46.6465 30.4748 46.6465 29.5251 46.0607 28.9393C45.4749 28.3535 44.5252 28.3535 43.9394 28.9393L33 39.8786L28.0607 34.9393C27.4749 34.3535 26.5252 34.3535 25.9394 34.9393C25.3536 35.5251 25.3536 36.4748 25.9394 37.0606L31.5858 42.7071C32.3669 43.4881 33.6332 43.4881 34.4142 42.7071L46.0607 31.0606Z" fill="#F87039"/>
</svg>
