<svg width="47" height="47" viewBox="0 0 47 47" fill="none" xmlns="http://www.w3.org/2000/svg">
<path d="M23.5 26.1105L5.4383 38.1523C5.29084 38.2504 5.11954 38.3067 4.94263 38.3151C4.76571 38.3236 4.58982 38.2839 4.43367 38.2003C4.27753 38.1167 4.14698 37.9923 4.05594 37.8404C3.96489 37.6885 3.91676 37.5147 3.91667 37.3376V9.66244C3.91676 9.48532 3.96489 9.31155 4.05594 9.15962C4.14698 9.0077 4.27753 8.88331 4.43367 8.79971C4.58982 8.71611 4.76571 8.67643 4.94263 8.6849C5.11954 8.69336 5.29084 8.74965 5.4383 8.84777L23.5 20.8896V9.66244C23.5001 9.48532 23.5482 9.31155 23.6393 9.15962C23.7303 9.0077 23.8609 8.88331 24.017 8.79971C24.1731 8.71611 24.349 8.67643 24.526 8.6849C24.7029 8.69336 24.8742 8.74965 25.0216 8.84777L45.778 22.6854C45.9121 22.7748 46.0221 22.8959 46.0981 23.038C46.1742 23.1801 46.214 23.3388 46.214 23.5C46.214 23.6612 46.1742 23.8199 46.0981 23.962C46.0221 24.1041 45.9121 24.2253 45.778 24.3147L25.0216 38.1523C24.8742 38.2504 24.7029 38.3067 24.526 38.3151C24.349 38.3236 24.1731 38.2839 24.017 38.2003C23.8609 38.1167 23.7303 37.9923 23.6393 37.8404C23.5482 37.6885 23.5001 37.5147 23.5 37.3376V26.1105ZM20.3549 23.5L7.83334 15.1516V31.8484L20.3549 23.5ZM27.4167 15.1516V31.8484L39.9383 23.5L27.4167 15.1516Z" fill="#EDE6F2"/>
</svg>
