<svg width="47" height="47" viewBox="0 0 47 47" fill="none" xmlns="http://www.w3.org/2000/svg">
<path d="M29.375 21.5417V21.5613M10.1304 16.4069C9.27152 15.7468 8.61184 14.862 8.22433 13.8504C7.83681 12.8388 7.73654 11.7397 7.9346 10.6746C8.13266 9.6096 8.62134 8.62006 9.34663 7.81538C10.0719 7.0107 11.0056 6.42223 12.0444 6.115C13.0832 5.80777 14.1868 5.79375 15.2331 6.07448C16.2794 6.35522 17.2277 6.91978 17.9732 7.70577C18.7187 8.49175 19.2323 9.46856 19.4574 10.5282C19.6824 11.5879 19.6101 12.6892 19.2484 13.7103" stroke="#EDE6F2" stroke-width="3" stroke-linecap="round" stroke-linejoin="round"/>
<path d="M31.3333 7.83331V15.2809C33.757 16.6833 35.6022 18.9027 36.5386 21.5416H39.1647C39.6841 21.5416 40.1822 21.748 40.5495 22.1152C40.9167 22.4825 41.123 22.9806 41.123 23.5V27.4166C41.123 27.936 40.9167 28.4341 40.5495 28.8014C40.1822 29.1687 39.6841 29.375 39.1647 29.375H36.5366C35.8786 31.2354 34.7604 32.9 33.2897 34.2179V38.1875C33.2897 38.9666 32.9802 39.7137 32.4293 40.2646C31.8784 40.8155 31.1313 41.125 30.3522 41.125C29.5731 41.125 28.826 40.8155 28.2751 40.2646C27.7242 39.7137 27.4147 38.9666 27.4147 38.1875V37.0458C26.7676 37.1542 26.1125 37.2085 25.4564 37.2083H17.623C16.9669 37.2085 16.3118 37.1542 15.6647 37.0458V38.1875C15.6647 38.9666 15.3552 39.7137 14.8043 40.2646C14.2534 40.8155 13.5063 41.125 12.7272 41.125C11.9481 41.125 11.201 40.8155 10.6501 40.2646C10.0992 39.7137 9.7897 38.9666 9.7897 38.1875V34.2179C8.01538 32.6316 6.76462 30.5439 6.20298 28.231C5.64134 25.9182 5.79531 23.4894 6.6445 21.266C7.49369 19.0426 8.99807 17.1295 10.9585 15.7799C12.9189 14.4303 15.243 13.7079 17.623 13.7083H22.5189L31.3314 7.83331H31.3333Z" stroke="#EDE6F2" stroke-width="3" stroke-linecap="round" stroke-linejoin="round"/>
</svg>
