<svg width="102" height="30" viewBox="0 0 102 30" fill="none" xmlns="http://www.w3.org/2000/svg">
<path d="M31.3724 13.5C31.3724 6.04416 37.4165 0 44.8724 0C52.3282 0 58.3724 6.04416 58.3724 13.5V30H46.3724C38.0881 30 31.3724 23.2843 31.3724 15V13.5Z" fill="#D53D33"/>
<path d="M7.248 24.384C6.328 24.384 5.48 24.28 4.704 24.072C3.928 23.872 3.232 23.62 2.616 23.316C2.008 23.004 1.484 22.684 1.044 22.356C0.604 22.028 0.256 21.74 0 21.492L1.992 18.276C2.256 18.508 2.572 18.768 2.94 19.056C3.308 19.344 3.72 19.62 4.176 19.884C4.632 20.14 5.124 20.356 5.652 20.532C6.188 20.7 6.756 20.784 7.356 20.784C7.916 20.784 8.408 20.696 8.832 20.52C9.264 20.344 9.604 20.084 9.852 19.74C10.1 19.388 10.224 18.952 10.224 18.432C10.224 17.96 10.124 17.56 9.924 17.232C9.724 16.896 9.428 16.596 9.036 16.332C8.652 16.06 8.176 15.796 7.608 15.54C7.048 15.276 6.408 14.988 5.688 14.676C5.152 14.436 4.64 14.164 4.152 13.86C3.672 13.548 3.244 13.188 2.868 12.78C2.492 12.372 2.192 11.912 1.968 11.4C1.752 10.88 1.644 10.3 1.644 9.66C1.644 8.9 1.796 8.172 2.1 7.476C2.404 6.78 2.836 6.16 3.396 5.616C3.964 5.072 4.636 4.64 5.412 4.32C6.196 4 7.068 3.84 8.028 3.84C8.748 3.84 9.468 3.936 10.188 4.128C10.908 4.32 11.58 4.572 12.204 4.884C12.828 5.196 13.356 5.536 13.788 5.904L12.168 8.952C11.824 8.656 11.432 8.392 10.992 8.16C10.56 7.92 10.096 7.728 9.6 7.584C9.112 7.44 8.616 7.368 8.112 7.368C7.544 7.368 7.06 7.468 6.66 7.668C6.268 7.868 5.964 8.136 5.748 8.472C5.54 8.8 5.436 9.168 5.436 9.576C5.436 9.912 5.504 10.2 5.64 10.44C5.784 10.672 5.984 10.876 6.24 11.052C6.496 11.22 6.804 11.384 7.164 11.544C7.524 11.696 7.92 11.86 8.352 12.036C9.28 12.428 10.12 12.816 10.872 13.2C11.624 13.584 12.268 14.012 12.804 14.484C13.34 14.948 13.748 15.492 14.028 16.116C14.316 16.74 14.46 17.484 14.46 18.348C14.46 19.612 14.156 20.696 13.548 21.6C12.948 22.504 12.108 23.196 11.028 23.676C9.948 24.148 8.688 24.384 7.248 24.384Z" fill="black"/>
<path d="M23.0434 24.384C21.9154 24.384 20.8874 24.104 19.9594 23.544C19.0394 22.976 18.3074 22.2 17.7634 21.216C17.2274 20.224 16.9594 19.096 16.9594 17.832C16.9594 16.6 17.2194 15.496 17.7394 14.52C18.2594 13.536 18.9754 12.76 19.8874 12.192C20.8074 11.616 21.8594 11.328 23.0434 11.328C23.9154 11.328 24.7274 11.496 25.4794 11.832C26.2394 12.16 26.8594 12.62 27.3394 13.212V11.712H31.0234V24H27.3394V22.38C26.7794 23.028 26.1354 23.524 25.4074 23.868C24.6794 24.212 23.8914 24.384 23.0434 24.384ZM24.1354 21.252C24.7754 21.252 25.3434 21.108 25.8394 20.82C26.3354 20.524 26.7234 20.12 27.0034 19.608C27.2834 19.096 27.4234 18.512 27.4234 17.856C27.4234 17.192 27.2794 16.608 26.9914 16.104C26.7114 15.592 26.3234 15.192 25.8274 14.904C25.3394 14.608 24.7754 14.46 24.1354 14.46C23.5034 14.46 22.9394 14.608 22.4434 14.904C21.9474 15.192 21.5554 15.592 21.2674 16.104C20.9794 16.616 20.8354 17.2 20.8354 17.856C20.8354 18.512 20.9754 19.096 21.2554 19.608C21.5434 20.12 21.9354 20.524 22.4314 20.82C22.9274 21.108 23.4954 21.252 24.1354 21.252Z" fill="black"/>
<path d="M35.3569 24V11.712H39.0409V13.08C39.6489 12.472 40.2529 12.028 40.8529 11.748C41.4529 11.468 42.1009 11.328 42.7969 11.328C43.7409 11.328 44.5929 11.54 45.3529 11.964C46.1129 12.388 46.6569 12.956 46.9849 13.668C47.5849 12.892 48.2289 12.308 48.9169 11.916C49.6049 11.524 50.3929 11.328 51.2809 11.328C52.1689 11.328 52.9569 11.512 53.6449 11.88C54.3329 12.248 54.8729 12.772 55.2649 13.452C55.6649 14.124 55.8649 14.92 55.8649 15.84V24H52.1809V16.848C52.1809 16.048 51.9729 15.42 51.5569 14.964C51.1409 14.5 50.5849 14.268 49.8889 14.268C49.4089 14.268 48.9849 14.368 48.6169 14.568C48.2569 14.768 47.9729 15.036 47.7649 15.372C47.5569 15.708 47.4529 16.08 47.4529 16.488V24H43.7689V16.776C43.7689 16.016 43.5649 15.408 43.1569 14.952C42.7569 14.496 42.2009 14.268 41.4889 14.268C41.0169 14.268 40.5929 14.368 40.2169 14.568C39.8489 14.768 39.5609 15.04 39.3529 15.384C39.1449 15.728 39.0409 16.108 39.0409 16.524V24H35.3569Z" fill="white"/>
<path d="M63.4931 24.384C62.4531 24.384 61.5211 24.22 60.6971 23.892C59.8811 23.564 59.2011 23.084 58.6571 22.452L60.2051 19.98C60.7171 20.524 61.2531 20.94 61.8131 21.228C62.3731 21.516 62.9331 21.66 63.4931 21.66C63.8051 21.66 64.0731 21.608 64.2971 21.504C64.5291 21.4 64.7091 21.252 64.8371 21.06C64.9731 20.86 65.0411 20.62 65.0411 20.34C65.0411 20.02 64.9491 19.768 64.7651 19.584C64.5891 19.4 64.3171 19.232 63.9491 19.08C63.5811 18.92 63.1051 18.72 62.5211 18.48C62.0251 18.272 61.5491 18.036 61.0931 17.772C60.6371 17.508 60.2651 17.172 59.9771 16.764C59.6971 16.356 59.5571 15.84 59.5571 15.216C59.5571 14.456 59.7691 13.788 60.1931 13.212C60.6171 12.628 61.2011 12.172 61.9451 11.844C62.6971 11.516 63.5611 11.352 64.5371 11.352C65.1451 11.352 65.7811 11.444 66.4451 11.628C67.1171 11.812 67.8331 12.092 68.5931 12.468L67.3331 14.832C66.3011 14.168 65.3771 13.836 64.5611 13.836C64.1051 13.836 63.7411 13.936 63.4691 14.136C63.1971 14.336 63.0611 14.588 63.0611 14.892C63.0611 15.18 63.2011 15.432 63.4811 15.648C63.7691 15.856 64.1171 16.044 64.5251 16.212C64.9411 16.372 65.3371 16.52 65.7131 16.656C66.3291 16.88 66.8731 17.128 67.3451 17.4C67.8251 17.672 68.2011 18.028 68.4731 18.468C68.7451 18.9 68.8811 19.48 68.8811 20.208C68.8811 21.096 68.6651 21.852 68.2331 22.476C67.8091 23.092 67.1931 23.564 66.3851 23.892C65.5851 24.22 64.6211 24.384 63.4931 24.384Z" fill="black"/>
<path d="M78.4144 24.384C77.0624 24.384 75.8424 24.108 74.7544 23.556C73.6664 22.996 72.8024 22.228 72.1624 21.252C71.5224 20.268 71.2024 19.136 71.2024 17.856C71.2024 16.576 71.5184 15.448 72.1504 14.472C72.7904 13.488 73.6544 12.72 74.7424 12.168C75.8384 11.608 77.0624 11.328 78.4144 11.328C79.7744 11.328 80.9984 11.608 82.0864 12.168C83.1744 12.72 84.0344 13.488 84.6664 14.472C85.3064 15.448 85.6264 16.576 85.6264 17.856C85.6264 19.136 85.3064 20.268 84.6664 21.252C84.0344 22.228 83.1744 22.996 82.0864 23.556C80.9984 24.108 79.7744 24.384 78.4144 24.384ZM78.4264 21.24C79.0504 21.24 79.6184 21.096 80.1304 20.808C80.6424 20.52 81.0464 20.124 81.3424 19.62C81.6384 19.108 81.7864 18.52 81.7864 17.856C81.7864 17.192 81.6384 16.608 81.3424 16.104C81.0464 15.592 80.6424 15.192 80.1304 14.904C79.6184 14.616 79.0504 14.472 78.4264 14.472C77.7944 14.472 77.2224 14.616 76.7104 14.904C76.2064 15.192 75.8064 15.592 75.5104 16.104C75.2144 16.608 75.0664 17.192 75.0664 17.856C75.0664 18.52 75.2144 19.108 75.5104 19.62C75.8064 20.124 76.2064 20.52 76.7104 20.808C77.2224 21.096 77.7944 21.24 78.4264 21.24Z" fill="black"/>
<path d="M88.8412 24V11.712H92.5253V13.08C92.9973 12.552 93.5853 12.128 94.2893 11.808C95.0013 11.488 95.7852 11.328 96.6413 11.328C97.5853 11.328 98.4133 11.536 99.1253 11.952C99.8453 12.36 100.409 12.932 100.817 13.668C101.225 14.396 101.429 15.248 101.429 16.224V24H97.7452V17.004C97.7452 16.124 97.5132 15.44 97.0492 14.952C96.5932 14.456 95.9653 14.208 95.1653 14.208C94.6213 14.208 94.1493 14.32 93.7493 14.544C93.3573 14.76 93.0533 15.06 92.8372 15.444C92.6292 15.82 92.5253 16.248 92.5253 16.728V24H88.8412Z" fill="black"/>
</svg>
